<svg id="Layer_1" data-name="Layer 1" xmlns="http://www.w3.org/2000/svg" viewBox="0 0 456.6 749.8"><title>Atalanta BC logo - Brandlogos.net</title><path d="M384,9.1C510.1,9.1,612.3,177,612.3,384S510.1,758.9,384,758.9,155.7,591,155.7,384,257.9,9.1,384,9.1" transform="translate(-155.7 -9.1)" style="fill:#fff"/><path d="M220.7,596.7C258.5,679.5,317.6,733,383.9,733c113.5,0,206.2-156.8,206.2-349,0-75.7-14.4-145.9-38.7-203.2l-3.9-8.8C509.8,88.8,450.5,35,384,35,270.5,35,177.8,191.8,177.8,384c0,76,14.5,146.5,39,203.9Z" transform="translate(-155.7 -9.1)" style="fill:#fff"/><path d="M384,35c66.5,0,125.8,53.8,163.6,137L216.9,587.9c-24.5-57.4-39-127.9-39-203.9C177.8,191.8,270.5,35,384,35" transform="translate(-155.7 -9.1)" style="fill:#0d68b1"/><path d="M551.4,180.8c24.3,57.3,38.7,127.5,38.7,203.2,0,192.2-92.6,349-206.2,349-66.3,0-125.5-53.5-163.2-136.3Z" transform="translate(-155.7 -9.1)" style="fill:#1e1e1c"/><path d="M394.2,182.2c-110.5-5.6-204.7,80.2-210.3,191.7s79.4,206.3,189.9,211.9,204.7-80.2,210.3-191.7S504.7,187.8,394.2,182.2m-11.4,384h-1c-1.7,0-3.5-.1-5.2-.2a181.54,181.54,0,0,1-125.8-59.8A181.83,181.83,0,0,1,394.9,202.6a181.54,181.54,0,0,1,125.8,59.8,201.36,201.36,0,0,1,14.2,17.8c-11.5,4.7-22.2,9.5-35.1,8.2-17.7-1.8-37.6-10.6-56.3-19.6-41.1-19.8-86.5-36.9-116.6-8.5-2.6,2.5-6.7,7.4-8.6,11.6-1.5,3.5-1.5,7.9-3.7,12-4,7.6-13,13-18.7,20.6a69.66,69.66,0,0,0-8.1,12.4c-3.2,6.6-5.9,16.5-9.9,22.7-3.7,5.8-10.8,12.6-16.7,18.2-4.7,4.4-15.3,11.2-16.7,18.2-1.7,8.2,8.7,11.1,8.5,17.9-.1,5.1-6.1,9.2-6.9,13.4-.9,5,1.2,5.9,3.8,11-.7,2.9-4.2,1.4-4.2,5.4.8,4.8,4.3,6.8,4,13.2-.4,7.2-5.2,13.3-4.7,19,1.3,15.2,37.5,17,55.5,23,24.6,8.2,37.9,26.7,50.5,43.4,3.3,4.4,8.1,10.4,11.9,15.9,1.9,2.8,8.2,13.8,13.4,21.4,53.6-1,99.3-18.1,141.2-61.2H527c-42.6,46-89.8,65.5-144.2,67.8" transform="translate(-155.7 -9.1)" style="fill:#fff"/><path d="M492.2,339.2c-33.1-5.5-65.3-29.5-98.8-35a72.68,72.68,0,0,0-22.8-.1c-7.6,1.2-14.7,3.5-20.3,6.9a48.43,48.43,0,0,0-4.4,3c-.5.4-2.6,2-2.7,3.1a.91.91,0,0,0,.3.7c33.7-5.2,71.3,11.1,103.1,23.2,8.1,3.1,16.1,6.3,23.9,8.7a96.47,96.47,0,0,0,11.2,2.8c30.5,5.4,61.4-3.3,75.6-25.1a1.38,1.38,0,0,0,.2-.7v-.2a.76.76,0,0,0-.2-.4.35.35,0,0,0-.2-.1,3.4,3.4,0,0,0-1,.1,2.14,2.14,0,0,1-.6.1C536,333.4,518.3,343.5,492.2,339.2Z" transform="translate(-155.7 -9.1)" style="fill:#1e1e1c"/><path d="M485,304.5a67.2,67.2,0,0,1-10.2-3.3c-7-2.7-14.2-6.2-21.3-9.8-3.3-1.7-6.6-3.4-9.9-5-7.4-3.7-15.2-7.4-23.1-10.8-23.7-10-48.7-16.3-70.1-6.4a41.14,41.14,0,0,0-7.4,4.4c-.1.1-.3.2-.4.3h0a25.65,25.65,0,0,0-4.7,4.6,14.4,14.4,0,0,0-2.3,4.2h0l8.7-.6c13.6-.9,27-1.1,41.1,1.1,3.4.6,6.9,1.2,10.4,2.1,20.9,5.2,38.9,16.9,58,25.5a129.64,129.64,0,0,0,21.9,7.8c22.4,5.4,42.5,2.4,58.4-7.3a60.44,60.44,0,0,0,12.3-9.7,5.14,5.14,0,0,0,.8-1.4V300c-.1-.5-.9-.6-.9-.6-3.1.6-6.1,1.3-9.1,2C521,305.2,505.4,309.5,485,304.5Z" transform="translate(-155.7 -9.1)" style="fill:#1e1e1c"/><path d="M551.2,454.7a112.09,112.09,0,0,1-43.9,15.8,102.16,102.16,0,0,1-38.1-2.3l-3.5-.9a5.64,5.64,0,0,1-1.2-.4,18.66,18.66,0,0,1-2.2-.7,7.84,7.84,0,0,1-1.4-.5c-.6-.2-1.3-.4-1.9-.6a4.18,4.18,0,0,1-1-.4l-.9-.3c-.4-.2-.9-.3-1.3-.5l-1.5-.6h-.1a8.65,8.65,0,0,1-1.7-.7c-.5-.2-1-.4-1.6-.6a12.2,12.2,0,0,1-1.7-.7c-.1,0-.2-.1-.3-.1a6.94,6.94,0,0,0-1.3-.5,11.11,11.11,0,0,1-1.6-.7c-.2-.1-.3-.1-.5-.2-.4-.2-.8-.3-1.2-.5s-1-.4-1.6-.7-1.3-.5-1.9-.8l-1.5-.6c-.1-.1-.3-.1-.4-.2-1.9-.8-3.8-1.7-5.7-2.5h0c-.1,0-.1-.1-.2-.1-1.4-.6-2.8-1.2-4.2-1.7-.1,0-.2-.1-.3-.1h-.1c-.8-.3-1.7-.7-2.5-1-.2-.1-.5-.2-.7-.3a.1.1,0,0,1-.1-.1,14.58,14.58,0,0,0-1.9-.7c-.4-.2-.8-.3-1.2-.5h-.1c-1.2-.4-2.3-.9-3.5-1.3-.3-.1-.6-.2-1-.3h0c-.2-.1-.4-.1-.6-.2h0c-.2-.1-.3-.1-.5-.2l.3.6a.35.35,0,0,0,.1.2h0c0,.1.1.1.1.2a2.09,2.09,0,0,0,.4.6c.1.2.3.5.4.7s.3.4.4.6.1.1.1.2a1.38,1.38,0,0,1,.3.4l.1.1c.1.2.3.4.4.6a4.23,4.23,0,0,1,.5.7c.1.2.3.4.4.6s.1.1.1.2.2.2.2.3l.2.2c.2.2.3.4.5.5l.6.6c.2.2.3.4.5.5l.1.1.3.3.2.2.5.5.6.6c.2.2.4.3.5.5l.1.1c.1.1.2.2.3.2l.3.3c.2.2.4.3.6.5s.5.4.7.6.4.3.6.5h0l.3.3.3.3c.2.2.4.3.6.5s.5.4.7.6a2.65,2.65,0,0,1,.6.5h.1l.1.1c.2.1.4.3.6.4s.4.3.6.4a5.55,5.55,0,0,1,.8.6c.2.1.3.3.5.4h0c.1,0,.1.1.2.1.2.2.5.3.7.5s.3.2.5.3a14.63,14.63,0,0,0,1.3.9.1.1,0,0,1,.1.1c39.3,27,100.2,21.7,118.5-10.2,0,0,.4-1-.1-1.4C552.4,454,551.2,454.7,551.2,454.7Z" transform="translate(-155.7 -9.1)" style="fill:#1e1e1c"/><path d="M564.1,422.6c-20.7,11.6-46.4,17.5-77.5,13.4a267.1,267.1,0,0,1-34.3-6.9,533.76,533.76,0,0,1-51.6-16.6c-3.3-1.2-6.5-2.5-9.8-3.7,0,0-2.3-1-2.5-.7-.1.1.1.4.3.7a12.52,12.52,0,0,0,1.2,1.2c43.3,42,142.2,62.4,174.8,14.9h0c.6-1.3.9-2.2.6-2.5S564.1,422.6,564.1,422.6Z" transform="translate(-155.7 -9.1)" style="fill:#1e1e1c"/><path d="M478.7,371c-20.8-5.3-41.9-16.1-63.2-22.7-.7-.2-1.4-.4-2-.6-.2-.1-.4-.1-.6-.2-.5-.1-1-.3-1.5-.4-.2-.1-.4-.1-.6-.2-.5-.1-1-.3-1.5-.4-.2-.1-.4-.1-.6-.2-.5-.1-1-.3-1.6-.4-.1,0-.3-.1-.4-.1-.6-.1-1.1-.3-1.7-.4a.37.37,0,0,1-.3-.1c-16.1-4.1-31.5-5.5-43.5-.2-.1.1-.3.1-.4.2s-.5.2-.7.3c-2.6,1.3-5.1,2.3-5.1,2.7,0,.1.1.2.2.3h.2a11.63,11.63,0,0,0,1.8.4.37.37,0,0,1,.3.1c.3.1.5.1.8.2l1.5.3c.3.1.6.1.9.2a183.66,183.66,0,0,1,53.7,14.8c53.5,24,125.3,40.2,149.6-6.3.3-.6.6-1.1.4-1.4s-.3-.1-.6,0C539.9,369.6,514,379.9,478.7,371Z" transform="translate(-155.7 -9.1)" style="fill:#1e1e1c"/><path d="M566.1,388.5c-23.5,10.1-46.1,20.2-77.9,16.4-33.4-4.1-65-22.5-98.9-28.6-6-1.1-16-2.2-20.6-.8a9.36,9.36,0,0,0-3.1,1.3c-.7.5-1,1.1.2,1.6,43.8,8.6,75.6,35.1,113.7,41.6,34.8,5.9,67.5-3.1,86.7-27.6a16.93,16.93,0,0,0,2.1-3.8C568.2,388,567.5,387.8,566.1,388.5Z" transform="translate(-155.7 -9.1)" style="fill:#1e1e1c"/><path d="M248.7,190.3l-4.5-20.1.1-.1,15.6,12.7Zm15.7-4.2,10.3,8.4L280,191l-36.3-28.3-5.5,3.7,9.8,46,5-3.3-3-13.3Z" transform="translate(-155.7 -9.1)" style="fill:#fff"/><path d="M248.7,190.3l-4.5-20.1.1-.1,15.6,12.7Zm15.7-4.2,10.3,8.4L280,191l-36.3-28.3-5.5,3.7,9.8,46,5-3.3-3-13.3Z" transform="translate(-155.7 -9.1)" style="fill:#fff"/><polygon points="101.1 143.1 132.7 128.1 134.8 132.9 121.7 139.1 137.5 174.3 132.3 176.8 116.4 141.6 103.3 147.9 101.1 143.1" style="fill:#fff"/><polygon points="101.1 143.1 132.7 128.1 134.8 132.9 121.7 139.1 137.5 174.3 132.3 176.8 116.4 141.6 103.3 147.9 101.1 143.1" style="fill:#fff"/><path d="M311.1,156.6l1.5-20.6h.1l11.2,16.9Zm16.2.8,7.5,11.2,6.1-1.8-26.5-38.1-6.3,1.8-3.9,46.9,5.7-1.7.9-13.6Z" transform="translate(-155.7 -9.1)" style="fill:#fff"/><path d="M311.1,156.6l1.5-20.6h.1l11.2,16.9Zm16.2.8,7.5,11.2,6.1-1.8-26.5-38.1-6.3,1.8-3.9,46.9,5.7-1.7.9-13.6Z" transform="translate(-155.7 -9.1)" style="fill:#fff"/><polygon points="196 149.6 217.6 146.9 218.2 152.2 190.9 155.6 185.7 111.9 191.4 111.1 196 149.6" style="fill:#fff"/><polygon points="196 149.6 217.6 146.9 218.2 152.2 190.9 155.6 185.7 111.9 191.4 111.1 196 149.6" style="fill:#fff"/><path d="M392.6,144l8.5-18.7h.1l4.6,19.9Zm14.8,6.7,3.1,13.2,6.3.6-11.5-45.3-6.5-.6L378.9,161l5.9.6,5.6-12.4Z" transform="translate(-155.7 -9.1)" style="fill:#fff"/><path d="M392.6,144l8.5-18.7h.1l4.6,19.9Zm14.8,6.7,3.1,13.2,6.3.6-11.5-45.3-6.5-.6L378.9,161l5.9.6,5.6-12.4Z" transform="translate(-155.7 -9.1)" style="fill:#fff"/><polygon points="306.4 121.5 311.8 123.1 299.5 165.3 293.3 163.4 282.3 122.9 282.2 122.9 272.3 157 266.9 155.4 279.2 113.1 285.8 115.1 296.4 155.5 296.5 155.6 306.4 121.5" style="fill:#fff"/><polygon points="306.4 121.5 311.8 123.1 299.5 165.3 293.3 163.4 282.3 122.9 282.2 122.9 272.3 157 266.9 155.4 279.2 113.1 285.8 115.1 296.4 155.5 296.5 155.6 306.4 121.5" style="fill:#fff"/><polygon points="319 125.5 350.5 140.6 348.4 145.3 335.2 139.1 319.3 174.2 314.1 171.7 330 136.5 316.8 130.3 319 125.5" style="fill:#fff"/><polygon points="319 125.5 350.5 140.6 348.4 145.3 335.2 139.1 319.3 174.2 314.1 171.7 330 136.5 316.8 130.3 319 125.5" style="fill:#fff"/><path d="M502,178.2,518.2,166l.1.1-5.2,19.7Zm9.9,13.2-3.4,13.1,5.3,3.6,11-45.5-5.4-3.8-37.2,27.3,5,3.4,10.7-8.1Z" transform="translate(-155.7 -9.1)" style="fill:#fff"/><path d="M502,178.2,518.2,166l.1.1-5.2,19.7Zm9.9,13.2-3.4,13.1,5.3,3.6,11-45.5-5.4-3.8-37.2,27.3,5,3.4,10.7-8.1Z" transform="translate(-155.7 -9.1)" style="fill:#fff"/><path d="M303.3,648.1l-6.8-2.2L308,608.6l-11.9-3.9,1.6-5.2c8.5,2.1,12.1,2.4,16.8-5.5l5,1.6Z" transform="translate(-155.7 -9.1)" style="fill:#fff"/><path d="M348.2,634.8c-4.5-.6-10.6-2.7-9.4-13.2.9-7.3,5.5-11.8,11.7-11,7.6,1,10.1,6.8,9.4,13-1.3,10.8-8.2,11.6-11.7,11.2m-1.7,6c4.9.6,10.5-1.1,12.9-5l.1.2c-3.3,13.9-7.9,19.7-15.2,18.8-5.4-.7-8.2-4.5-7.9-10.1l-6.7-.8c-.6,5.3,1.6,15,14.1,16.6,18.3,2.3,22.2-22.5,22.9-28.4,1.1-8.9,1.4-25.5-15.6-27.7C339.9,603,333,611,331.8,621c-1.2,10.9,4.9,18.6,14.7,19.8" transform="translate(-155.7 -9.1)" style="fill:#fff"/><path d="M348.2,634.8c-4.5-.6-10.6-2.7-9.4-13.2.9-7.3,5.5-11.8,11.7-11,7.6,1,10.1,6.8,9.4,13-1.3,10.8-8.2,11.6-11.7,11.2m-1.7,6c4.9.6,10.5-1.1,12.9-5l.1.2c-3.3,13.9-7.9,19.7-15.2,18.8-5.4-.7-8.2-4.5-7.9-10.1l-6.7-.8c-.6,5.3,1.6,15,14.1,16.6,18.3,2.3,22.2-22.5,22.9-28.4,1.1-8.9,1.4-25.5-15.6-27.7C339.9,603,333,611,331.8,621c-1.2,10.9,4.9,18.6,14.7,19.8" transform="translate(-155.7 -9.1)" style="fill:#fff"/><path d="M413.8,633.8c.8,13.8-2.2,22.3-9.8,22.8s-11.7-7.6-12.5-21.3,2.2-22.3,9.8-22.8,11.7,7.5,12.5,21.3m7.2-.5c-.7-11.4-4.7-28-20-27s-17.3,18-16.6,29.4,4.7,28,20,27,17.2-18,16.6-29.4" transform="translate(-155.7 -9.1)" style="fill:#fff"/><path d="M413.8,633.8c.8,13.8-2.2,22.3-9.8,22.8s-11.7-7.6-12.5-21.3,2.2-22.3,9.8-22.8,11.7,7.5,12.5,21.3m7.2-.5c-.7-11.4-4.7-28-20-27s-17.3,18-16.6,29.4,4.7,28,20,27,17.2-18,16.6-29.4" transform="translate(-155.7 -9.1)" style="fill:#fff"/><path d="M429.6,602.9l35.6-10.4,1.6,5.8c-3.6,7-11.2,27.5-8.3,52.2l-7.1,2.1c-2.3-15.1,1.8-36.8,8.4-51.5l-28.3,8.3Z" transform="translate(-155.7 -9.1)" style="fill:#fff"/><path d="M429.6,602.9l35.6-10.4,1.6,5.8c-3.6,7-11.2,27.5-8.3,52.2l-7.1,2.1c-2.3-15.1,1.8-36.8,8.4-51.5l-28.3,8.3Z" transform="translate(-155.7 -9.1)" style="fill:#fff"/></svg>