<svg xmlns="http://www.w3.org/2000/svg" viewBox="0 0 20.73 31.84"><title>Bologna FC 1909 logo - Brandlogos.net</title><g style="isolation:isolate"><g id="Layer_1" data-name="Layer 1"><g style="mix-blend-mode:multiply"><path d="M242.29,246.94c0-8.37,4.32-15.18,9.62-15.18s9.62,6.81,9.62,15.18-4.32,15.18-9.62,15.18-9.62-6.81-9.62-15.18" transform="translate(-241.55 -231.02)" style="fill:#fff"/><path d="M261.73,248.08h-3.44v-8.69h-2.81v8.69h-3.57V231.76c-5.3,0-9.62,6.81-9.62,15.18s4.32,15.18,9.62,15.18V250.89h3.57v10.7l2.81-2.65v-8.05h3.44Z" transform="translate(-241.55 -231.02)" style="fill:#f7323f"/><path d="M242.29,246.94c0-8.37,4.32-15.18,9.62-15.18s9.62,6.81,9.62,15.18-4.32,15.18-9.62,15.18-9.62-6.81-9.62-15.18m2.24-11.19a22.48,22.48,0,0,0,0,22.39c2,3,4.58,4.72,7.38,4.72s5.42-1.68,7.38-4.72a22.48,22.48,0,0,0,0-22.39c-2-3-4.58-4.72-7.38-4.72s-5.42,1.68-7.38,4.72" transform="translate(-241.55 -231.02)" style="fill:#edaa00"/><path d="M258,258.65q.33-.43.64-.9v-6.42h2.46c0-.21.08-.42.11-.63H258Z" transform="translate(-241.55 -231.02)" style="fill:#004990"/><path d="M255,247.68h-2.75v-5.29a9.57,9.57,0,0,0,2.75-.53Zm3.66,0v-8.17a8.84,8.84,0,0,0,1.08-1.39c-1.75-3.84-4.6-6.35-7.82-6.35s-6.15,2.57-7.89,6.49q.16.24.33.48v17.6a13,13,0,0,0,2.6,3.61V241.06a9.37,9.37,0,0,0,2.7,1.09v19.55a6.31,6.31,0,0,0,2.26.42h.34V251.34H255v10q.32-.17.64-.38V250.7h-3.39v-2.38h3.39v-6.7a9.2,9.2,0,0,0,2.38-1.5v8.2h3.47q0-.32,0-.64Z" transform="translate(-241.55 -231.02)" style="fill:#004990"/><path d="M251.3,238.49h1.43a1.1,1.1,0,0,1-.2-.62V236h.59a.45.45,0,0,1,.39.22V235a1.32,1.32,0,0,1-.42.14h-.58v-1.55c0-.13,0-.26.27-.17a3.55,3.55,0,0,1,1.36.61v-1a7.1,7.1,0,0,0-1.77-.51,8.47,8.47,0,0,0-1.05.07,1.11,1.11,0,0,1,.2.56V238a1.46,1.46,0,0,1-.23.53" transform="translate(-241.55 -231.02)" style="fill:#fff"/><path d="M256.62,234.62l-.39.72a.72.72,0,0,0-.54-.27c-.33,0-.84.25-.84,1.32s.64,1.13.82,1.13a1.13,1.13,0,0,0,.65-.26l.29.78a1.3,1.3,0,0,1-1,.41c-.74,0-1.69-.48-1.69-2.07s1-2.24,1.73-2.24a1.19,1.19,0,0,1,1,.49" transform="translate(-241.55 -231.02)" style="fill:#fff"/><path d="M248.69,239.3a.42.42,0,0,0,.4-.25l.43,0v1.81l-.51-.2v-1.17s-.06.07-.33.06Z" transform="translate(-241.55 -231.02)" style="fill:#fff"/><path d="M250.57,240.05c-.16,0-.26-.13-.26-.33a.29.29,0,0,1,.27-.32c.23,0,.27.23.27.36a.31.31,0,0,1-.29.29m0-1a.73.73,0,0,0-.74.72c0,.46.27.68.51.68a1.6,1.6,0,0,0,.45-.07.31.31,0,0,1-.33.36,1.44,1.44,0,0,1-.52-.16v.33a1,1,0,0,0,.59.2c.35,0,.81-.28.81-1S251,239,250.6,239" transform="translate(-241.55 -231.02)" style="fill:#fff"/><path d="M252.49,240.7c-.2,0-.36-.28-.36-.63s.16-.63.36-.63.35.28.35.63-.16.63-.35.63m0-1.71c-.43,0-.78.49-.78,1.09s.35,1.09.78,1.09.78-.49.78-1.09-.35-1.09-.78-1.09" transform="translate(-241.55 -231.02)" style="fill:#fff"/><path d="M254.28,240a.28.28,0,1,1,.25-.28.27.27,0,0,1-.25.28m0-1a.67.67,0,0,0-.74.67c0,.68.78.64.78.64-.11.39-.66.25-.66.25v.29a1,1,0,0,0,1.32-1,.78.78,0,0,0-.69-.85" transform="translate(-241.55 -231.02)" style="fill:#fff"/><path d="M248.4,237.62v-.85c.42-.4,1.55-.88,1.75.07s-1.75.78-1.75.78m0-3s.93-1,1.22-.28-1.17,1.35-1.22,1.35Zm1.78.82a2.06,2.06,0,0,0,.43-1.47,1.17,1.17,0,0,0-1.63-.82,10.23,10.23,0,0,0-1.75,1.39c.16,0,.26.16.26.39v2.84a.8.8,0,0,1-.27.69h2.4a1.75,1.75,0,0,0,1.55-1.63,1.3,1.3,0,0,0-1-1.39" transform="translate(-241.55 -231.02)" style="fill:#fff"/></g></g></g></svg>