<svg xmlns="http://www.w3.org/2000/svg" xmlns:xlink="http://www.w3.org/1999/xlink" viewBox="0 0 422.36 510.98"><defs><clipPath id="a" transform="translate(-189.64 -122)"><rect x="189.64" y="122" width="422.36" height="510.98" style="fill:none"/></clipPath></defs><title>Cagliari Calcio logo</title><g style="clip-path:url(#a)"><path d="M400.82,633C527.42,556.7,612,418.54,612,260.75a433.05,433.05,0,0,0-11.88-100.47,535.39,535.39,0,0,0-398.71.44,433.07,433.07,0,0,0-11.77,100c0,157.79,84.59,296,211.18,372.23" transform="translate(-189.64 -122)" style="fill:#fff"/><path d="M400.82,129.8a516.22,516.22,0,0,0-193.3,37.54,419.55,419.55,0,0,0-11.41,97c0,153,82,286.89,204.72,360.83Z" transform="translate(-189.64 -122)" style="fill:#b10d28"/><path d="M401.18,129.79h-.36V625.13C523.54,551.19,605.53,417.25,605.53,264.3A419.7,419.7,0,0,0,594,166.9a516.45,516.45,0,0,0-192.85-37.11" transform="translate(-189.64 -122)" style="fill:#00234f"/><path d="M557.57,286.2q0-17.94-1.62-35.48a520.8,520.8,0,0,0-310.28.24q-1.59,17.41-1.6,35.24c0,126.95,61.61,239.6,156.75,310.1C496,525.8,557.57,413.15,557.57,286.2" transform="translate(-189.64 -122)" style="fill:#fff"/><path d="M496.41,451.08a33.52,33.52,0,0,1-2.23-3.41c-.36-.89-2.41-2.92-1.43-5.07a6.27,6.27,0,0,0-.08-3.34s-.86.1-2.38.33-3.7.57-6.32,1.06-5.68,1.13-9,1.95-6.83,1.81-10.38,3c-4.73,1.58-8.83,3.14-12.18,4.54s-6,2.61-7.74,3.47S442,455,442,455c-1.44,2.74-1,4.23.12,5.11s3.19,1.08,3.77,1.49c2.65,1.88,2.56,6.63,1.85,8.87s-2,3.76-1.51,4.63,2.32,1.81,4.43,2.85a32.79,32.79,0,0,1,6,3.41c3.11,2.57,5.73,4.71,8.12,6.33a20.12,20.12,0,0,0,6.8,3.21,13.3,13.3,0,0,0,7.07-.43c2.57-.81-1.85-3.27,0-7.93,2.13-5.31.31-6.47,2.13-6.53,4.79-.18,7.83-.58,9.66-1.41a3.7,3.7,0,0,0,2.39-3.95c-.08-2.43-2-3.4.23-5.22,1.42-1.15-.4-2.93-1.17-3.27a2.33,2.33,0,0,0,1.93-2.23c0-.58-1.68-1.57-.91-2.64.64-.89,3-.42,4.1-1.39s.77-2.85-.55-4.8m-56.59-.34a23.34,23.34,0,0,1,2.21-2.58,42.58,42.58,0,0,1,5.55-4.67A94.14,94.14,0,0,1,458.23,437c2.76-1.47,5.45-2.78,8-4s5.08-2.21,7.42-3.13,4.55-1.7,6.57-2.4,3.87-1.27,5.5-1.78a5.44,5.44,0,0,0-.28-3.24c-.71-1.6-2.56-3.17-7.13-3a44.64,44.64,0,0,1-8.62-.83,26.29,26.29,0,0,0-10.06.55,18.51,18.51,0,0,0-6,2.42c-1.67,1-3.21,2.24-5.21,3.56a49.23,49.23,0,0,1-5.39,3,10.23,10.23,0,0,0-3.86,3.56,7.78,7.78,0,0,0-1.43,5.39,19.16,19.16,0,0,1-.64,6.86c-1.13,3.83,2.66,6.81,2.66,6.81" transform="translate(-189.64 -122)" style="fill:#00234f"/><path d="M510.29,309.71c-1.37,1.26-4.21.57-5,1.58-.94,1.21,1.17,2.34,1.12,3a2.75,2.75,0,0,1-2.36,2.53c.94.38,3.18,2.41,1.46,3.71-2.75,2.07-.36,3.17-.25,5.92a4.17,4.17,0,0,1-2.91,4.48c-2.23.94-5.94,1.39-11.81,1.6-2.22.07,0,1.4-2.56,7.43-2.26,5.29,3.15,8.09,0,9a17.48,17.48,0,0,1-8.65.5A25.45,25.45,0,0,1,471,345.8c-2.94-1.84-6.15-4.27-10-7.19a41.59,41.59,0,0,0-7.32-3.87c-2.58-1.18-4.85-2.26-5.42-3.24s1-2.71,1.85-5.25.86-8-2.31-10.06c-.72-.48-3.28-.69-4.6-1.69s-1.91-2.69-.16-5.81c0,0,1.15-.59,3.31-1.57s5.36-2.36,9.45-3.94,9.08-3.36,14.86-5.15c4.33-1.34,8.64-2.46,12.66-3.39s7.76-1.66,11-2.22,5.85-1,7.71-1.21,2.91-.37,2.91-.37a6.57,6.57,0,0,1,.11,3.8c-1.18,2.44,1.33,4.74,1.78,5.75a34.88,34.88,0,0,0,2.74,3.87c1.5,2.18,2.14,4.43.7,5.45M437.2,296.13a20.19,20.19,0,0,0,.77-7.77,8.39,8.39,0,0,1,1.74-6.12,12.14,12.14,0,0,1,4.7-4,62.07,62.07,0,0,0,6.57-3.39c2.43-1.5,4.31-2.88,6.35-4a23.36,23.36,0,0,1,7.25-2.74,37.33,37.33,0,0,1,8.94-.91,54.37,54.37,0,0,1,6.49.72,40.93,40.93,0,0,0,7.37.49c5.56-.15,7.84,1.62,8.71,3.44a5.73,5.73,0,0,1,.35,3.67c-2,.57-4.23,1.24-6.7,2s-5.16,1.69-8,2.72-5.89,2.22-9,3.55-6.43,2.82-9.79,4.49a116.91,116.91,0,0,0-13,7.41,50.77,50.77,0,0,0-6.76,5.29,27.4,27.4,0,0,0-2.7,2.93s-4.62-3.4-3.26-7.74" transform="translate(-189.64 -122)" style="fill:#00234f"/><path d="M365.47,451.08a37,37,0,0,1-2.52-3.41c-.44-.89-2.66-2.92-1.86-5.07a6.32,6.32,0,0,0-.35-3.34s-1.52.18-4.07.59-6.11,1.06-10.19,2a133.48,133.48,0,0,0-13.27,3.74c-4.6,1.58-8.56,3.14-11.8,4.54s-5.75,2.61-7.45,3.47-2.6,1.39-2.6,1.39c-1.21,2.74-.61,4.23.55,5.11s3.28,1.07,3.89,1.49c2.89,1.93,3.13,6.63,2.61,8.87s-1.66,3.76-1.12,4.63,2.47,1.81,4.67,2.85a36.34,36.34,0,0,1,6.26,3.41c3.33,2.57,6.13,4.71,8.66,6.33a22.14,22.14,0,0,0,7.06,3.21,13.12,13.12,0,0,0,7-.43c2.51-.81-2.12-3.27-.64-7.93,1.69-5.31-.24-6.47,1.57-6.53,4.78-.18,7.78-.58,9.54-1.41a3.38,3.38,0,0,0,2.06-3.95c-.28-2.43-2.3-3.41-.22-5.22,1.32-1.14-.65-2.93-1.45-3.27a2.1,2.1,0,0,0,1.75-2.23c0-.58-1.81-1.57-1.13-2.64.56-.88,2.94-.43,4-1.39s.54-2.85-1-4.8m-56.62-.34a20.65,20.65,0,0,1,2-2.58,38,38,0,0,1,5.16-4.67A84,84,0,0,1,326.1,437c2.63-1.47,5.21-2.78,7.69-4s4.89-2.21,7.15-3.13,4.4-1.7,6.37-2.4,3.76-1.27,5.34-1.78a5.52,5.52,0,0,0-.55-3.24c-.85-1.6-2.83-3.17-7.38-3a45.75,45.75,0,0,1-8.69-.83,26,26,0,0,0-10,.55,17,17,0,0,0-5.75,2.42c-1.58,1-3,2.24-4.9,3.56a44.78,44.78,0,0,1-5.15,3,9,9,0,0,0-3.56,3.56,7.42,7.42,0,0,0-1,5.39,19,19,0,0,1-.06,6.86c-.81,3.83,3.23,6.81,3.23,6.81" transform="translate(-189.64 -122)" style="fill:#00234f"/><path d="M366.26,309.71c-1.26,1.26-4.17.58-4.86,1.58-.83,1.21,1.37,2.34,1.38,3a2.48,2.48,0,0,1-2.14,2.53c1,.38,3.36,2.41,1.76,3.71-2.56,2.06-.09,3.17.25,5.92a3.8,3.8,0,0,1-2.52,4.48c-2.15.94-5.82,1.39-11.67,1.6-2.21.07.13,1.4-1.94,7.43-1.82,5.29,3.83,8.09.77,9a17.25,17.25,0,0,1-8.62.5A27.85,27.85,0,0,1,330,345.8c-3.09-1.84-6.51-4.27-10.57-7.2a46.23,46.23,0,0,0-7.64-3.87c-2.68-1.18-5-2.26-5.69-3.24s.75-2.71,1.4-5.25.3-7.9-3.15-10.06c-.77-.49-3.34-.69-4.75-1.69s-2.14-2.69-.65-5.8c0,0,1.09-.59,3.18-1.58s5.16-2.36,9.12-3.94,8.8-3.36,14.43-5.15c4.22-1.34,8.43-2.46,12.37-3.39s7.62-1.66,10.77-2.22,5.77-1,7.6-1.2,2.88-.37,2.88-.37a6.69,6.69,0,0,1,.42,3.8c-1,2.44,1.72,4.74,2.26,5.75a40.09,40.09,0,0,0,3.07,3.87c1.7,2.19,2.52,4.43,1.16,5.45M292,296.13a19.89,19.89,0,0,0,.12-7.77,8,8,0,0,1,1.23-6.12,10.77,10.77,0,0,1,4.36-4,55.38,55.38,0,0,0,6.29-3.39c2.3-1.5,4.06-2.88,6-4a21.54,21.54,0,0,1,7-2.74,36.47,36.47,0,0,1,8.86-.91,55.77,55.77,0,0,1,6.55.73,41.64,41.64,0,0,0,7.41.49c5.55-.16,8,1.62,9,3.44a5.91,5.91,0,0,1,.66,3.67c-1.93.57-4.13,1.24-6.53,2s-5,1.69-7.78,2.72-5.7,2.21-8.74,3.54-6.19,2.83-9.41,4.5a104.17,104.17,0,0,0-12.36,7.41,45.25,45.25,0,0,0-6.32,5.29,24.56,24.56,0,0,0-2.45,2.94s-4.91-3.4-3.91-7.74" transform="translate(-189.64 -122)" style="fill:#00234f"/><path d="M541.89,179.56l4.51,1.22c.38,2.57.74,5,1.07,7.28s.65,4.46,1,6.55l.9,6.07c.29,2,.57,3.9.86,5.83s.57,3.86.85,5.83l.9,6.07c.31,2.09.62,4.26,1,6.55s.69,4.7,1.07,7.28l-4.87-1.45-4.9-1.4-1-7.21c-.31-2.27-.6-4.42-.87-6.49s-.55-4.06-.82-6l-.78-5.78c-.26-1.91-.51-3.83-.77-5.78s-.53-3.94-.82-6-.57-4.22-.87-6.49l-1-7.21,4.56,1.17M521.1,196c-1.22,1.22-3.19,1.52-5.91.94-1.93-.41-3.38-.71-4.84-1l-4.86-1c-.22-2.17-.42-4-.59-5.67s-.33-3.25-.51-4.94-.36-3.5-.58-5.66l4.8.9c1.44.28,2.87.56,4.77.95a12,12,0,0,1,3.62,1.32,10,10,0,0,1,2.76,2.31,12.18,12.18,0,0,1,1.85,3,12.37,12.37,0,0,1,.9,3.42q.42,3.56-1.41,5.38M532,192.77a22.87,22.87,0,0,0-1.08-4.67,22.29,22.29,0,0,0-2-4.27,23.9,23.9,0,0,0-3-3.87,23.2,23.2,0,0,0-3.78-3.24,23.52,23.52,0,0,0-4.46-2.38,27.69,27.69,0,0,0-5.13-1.52c-2.54-.51-4.67-.91-6.66-1.28s-3.85-.7-5.85-1.05-4.16-.71-6.75-1.13c.24,2.46.46,4.77.67,7s.41,4.27.6,6.27.38,3.93.56,5.81.36,3.73.54,5.58.35,3.7.54,5.58.37,3.81.56,5.81.4,4.08.61,6.27.43,4.5.67,7c2,.38,3.55.67,5.07,1s3,.6,5,1c-.24-2.39-.45-4.39-.64-6.26s-.38-3.6-.57-5.46-.4-3.86-.64-6.26l4.26.85,4.26.89,3.11,5.43,2.69,4.7,2.7,4.72,3.16,5.52c2,.48,3.48.86,5,1.24s3,.76,4.94,1.28l-3.41-6-2.91-5.12-2.89-5.09-3.34-5.88a10.06,10.06,0,0,0,4.92-1.89,8.29,8.29,0,0,0,2.92-4.25,14.9,14.9,0,0,0,.35-6.27m-63,3.39c1.92.24,3.84.49,6.39.84l-2.11-5.36-1.8-4.6-1.8-4.6c-.63-1.61-1.31-3.34-2.08-5.32l-.21,0c-.63,2.45-1.16,4.48-1.66,6.38s-1,3.66-1.46,5.56-1,3.93-1.7,6.38c2.57.29,4.49.52,6.41.76m-2.36-30.43c1.53.17,3.06.35,5.1.6l2.67,6.42,2.44,5.86,2.27,5.46,2.18,5.22,2.15,5.15,2.2,5.25c.75,1.79,1.52,3.62,2.32,5.52l2.51,6,2.77,6.59c-2.06-.36-3.6-.63-5.15-.88s-3.1-.51-5.17-.83l-2.19-5.53L478.6,205c-2.38-.34-4.36-.62-6.22-.86s-3.59-.46-5.45-.69-3.85-.47-6.26-.73l-1.38,5c-.42,1.5-.83,3-1.39,5-2.1-.22-3.68-.38-5.26-.53l-5.28-.48c.75-2.33,1.45-4.51,2.11-6.58s1.28-4,1.87-5.93,1.16-3.71,1.7-5.49,1.09-3.53,1.62-5.28,1.06-3.49,1.6-5.27,1.08-3.61,1.65-5.5,1.15-3.86,1.75-5.94,1.25-4.26,1.92-6.59l5.11.56m-35.84,44.86c2.11.11,3.69.21,5.27.32s3.15.21,5.25.37c-.13-2.4-.26-4.66-.38-6.8s-.23-4.16-.33-6.12-.21-3.83-.32-5.67-.2-3.64-.3-5.44-.2-3.6-.3-5.44-.21-3.72-.31-5.67-.22-4-.34-6.12-.24-4.39-.37-6.8l-5-.31-5-.26c.11,2.4.2,4.64.29,6.78s.19,4.16.27,6.1.17,3.82.25,5.65.16,3.63.23,5.43.16,3.6.24,5.43.16,3.71.25,5.65.17,4,.27,6.1.19,4.38.3,6.78m-30.28-42.11c0,2,0,3.94,0,5.77s0,3.61,0,5.35,0,3.46,0,5.21,0,3.51,0,5.35,0,3.75,0,5.77,0,4.17,0,6.49c2.34,0,4.39,0,6.29,0s3.65,0,5.4.08,3.5.08,5.39.13,3.93.12,6.26.22c0,1.48.09,2.59.13,3.7s.08,2.22.13,3.7c-2.27-.1-4.36-.17-6.32-.23s-3.8-.11-5.57-.14-3.49-.06-5.21-.08-3.44,0-5.22,0l-5.6,0c-2,0-4.06.05-6.35.11,0-2.39.09-4.64.13-6.76s.08-4.15.12-6.09.07-3.81.11-5.64.07-3.62.11-5.42.07-3.59.11-5.42.07-3.7.11-5.64.08-4,.12-6.09.09-4.37.13-6.76l4.92-.08,4.9,0c0,2.31,0,4.46,0,6.48m-38.72,24.88,4.56-.32,4.56-.28c-.08,1.78-.14,3.1-.2,4.44s-.12,2.66-.21,4.43a10.47,10.47,0,0,1-3.44,1.92,21.92,21.92,0,0,1-5.89,1.1,11.27,11.27,0,0,1-4.56-.48,7.83,7.83,0,0,1-3.39-2.25,9.28,9.28,0,0,1-2-3.73,14.7,14.7,0,0,1-.43-4.9l.33-5.06c.1-1.52.2-3,.33-5.06a17.08,17.08,0,0,1,1-5,14.34,14.34,0,0,1,2.38-4.1,11.32,11.32,0,0,1,3.44-2.83,10.6,10.6,0,0,1,4.22-1.17,11.42,11.42,0,0,1,3.82.3,6.21,6.21,0,0,1,2.72,1.49,8.13,8.13,0,0,1,2.28,5.9c1.91-.11,3.34-.18,4.78-.25l4.77-.2.08-.2a15.36,15.36,0,0,0-1.08-6.22,12.76,12.76,0,0,0-3.48-4.78,13,13,0,0,0-3.6-2.19,18,18,0,0,0-4.57-1.16,28.62,28.62,0,0,0-5.56-.11,23.89,23.89,0,0,0-5.52,1,21.32,21.32,0,0,0-4.89,2.23,22.81,22.81,0,0,0-4.28,3.43,23.41,23.41,0,0,0-3.4,4.35,22.83,22.83,0,0,0-2.21,5,24.8,24.8,0,0,0-1,5.55c-.15,2-.26,3.54-.37,5.05s-.22,3-.37,5.05a21,21,0,0,0,.26,5.43,14.64,14.64,0,0,0,1.64,4.55,14.17,14.17,0,0,0,3,3.68,15.7,15.7,0,0,0,4.19,2.61,19.38,19.38,0,0,0,5.08,1.34,28.84,28.84,0,0,0,6,.11,45.12,45.12,0,0,0,6.93-1,27.13,27.13,0,0,0,5.69-2,30.48,30.48,0,0,0,4.4-2.57,16.27,16.27,0,0,0,3.08-2.8c.08-2.41.14-4.41.21-6.28s.12-3.61.18-5.48.13-3.88.21-6.28c-2.57.1-4.72.19-6.72.29s-3.86.2-5.85.32-4.15.26-6.71.44c-.07,1.34-.13,2.34-.19,3.33s-.11,2-.18,3.34M314.56,199c1.9-.31,3.8-.61,6.34-1-.61-2.44-1.11-4.47-1.58-6.36s-.9-3.66-1.36-5.55-1-3.93-1.54-6.38l-.21,0-2.13,5.44-1.84,4.69-1.85,4.7c-.65,1.66-1.35,3.44-2.16,5.48,2.52-.44,4.42-.75,6.32-1.06m2.82-30.75,5.06-.73c.63,2.33,1.23,4.51,1.8,6.58l1.64,5.91c.53,1.89,1,3.7,1.55,5.48s1,3.51,1.49,5.25,1,3.48,1.52,5.25,1,3.59,1.6,5.46,1.13,3.84,1.75,5.9,1.27,4.23,2,6.54c-2.09.26-3.66.47-5.22.68s-3.12.43-5.2.74c-.52-2-.91-3.5-1.3-5s-.77-3-1.28-5c-2.38.36-4.35.66-6.19,1l-5.38.89c-1.83.32-3.79.66-6.14,1.09l-2.22,5.64-2.24,5.65c-2,.4-3.57.71-5.1,1s-3,.63-5.08,1.07l2.83-6.74,2.56-6.11,2.36-5.65,2.24-5.37,2.2-5.27,2.22-5.33,2.32-5.58,2.49-6,2.72-6.57,5-.77m-42.85,7.39a22.93,22.93,0,0,0-5.17,1.87,24.26,24.26,0,0,0-4.63,3.08,30.41,30.41,0,0,0-4.14,4.28,35.3,35.3,0,0,0-3.4,5.12,34.54,34.54,0,0,0-2.41,5.59,35.68,35.68,0,0,0-1.42,6l-.75,5.11-.75,5.11a26.52,26.52,0,0,0-.27,5.72,14.39,14.39,0,0,0,1.05,4.59,10.31,10.31,0,0,0,2.39,3.47,9.65,9.65,0,0,0,3.56,2.14,12.92,12.92,0,0,0,4.52.64,23.49,23.49,0,0,0,5.47-.84,35.19,35.19,0,0,0,5.55-1.94,28.91,28.91,0,0,0,4.83-2.72A26.69,26.69,0,0,0,283,219.4a24.59,24.59,0,0,0,3.17-4.15,22.31,22.31,0,0,0,2.09-4.62,23.9,23.9,0,0,0,1-5.1l0-.19c-1.92.41-3.34.73-4.78,1l-4.76,1.08a18.44,18.44,0,0,1-1.06,4.52,12.69,12.69,0,0,1-2,3.55,11.32,11.32,0,0,1-3,2.6,15.51,15.51,0,0,1-4.08,1.65,8.08,8.08,0,0,1-4,.16A4.92,4.92,0,0,1,262.7,218a8.37,8.37,0,0,1-1.44-3.7,18.06,18.06,0,0,1,0-5.14c.28-2,.48-3.56.69-5.09s.41-3.06.68-5.1a25.23,25.23,0,0,1,1.32-5.43,21.57,21.57,0,0,1,2.41-4.71,14.49,14.49,0,0,1,3.25-3.51,11.33,11.33,0,0,1,7.91-2.13,4.33,4.33,0,0,1,2.64,1.33,5.81,5.81,0,0,1,1.32,2.85,14.28,14.28,0,0,1,.06,4.26l4.7-1,4.73-1,.09-.22a17.49,17.49,0,0,0-.37-7.09,9.72,9.72,0,0,0-3.11-4.85,9.9,9.9,0,0,0-3.44-1.86,14.07,14.07,0,0,0-4.37-.61,24.19,24.19,0,0,0-5.29.68" transform="translate(-189.64 -122)" style="fill:#fff"/><path d="M535.62,363.62c-35.7,2.64-76.31,4.82-119.57,5.23.42-37.37.64-76.87.64-117.74,0-1.66,0-3.31,0-5-5.16-.17-10.33-.27-15.54-.27q-8.49,0-16.91.32v4.93c0,40.86.22,80.36.64,117.73-43-.46-83.38-2.64-118.85-5.28q2.55,13.47,6.13,26.57a1022.9,1022.9,0,0,0,113.1,8.22c1,66.44,2.53,124.95,4.55,170.7,3.62,2.92,7.29,5.79,11,8.56,3.48-2.58,6.89-5.24,10.27-7.95,2-45.84,3.62-104.56,4.58-171.29a1022.83,1022.83,0,0,0,113.8-8.15q3.59-13.11,6.15-26.61" transform="translate(-189.64 -122)" style="fill:#b10d28"/></g></svg>