<svg id="Layer_1" data-name="Layer 1" xmlns="http://www.w3.org/2000/svg" width="302.71" height="286.48" viewBox="0 0 302.71 286.48"><title>US Cremonese logo - Brandlogos.net</title><circle cx="152.12" cy="141.4" r="118.98" style="fill:#ed1c24"/><path d="M384.76,281.41A100.75,100.75,0,1,0,485.52,382.16,100.87,100.87,0,0,0,384.76,281.41Zm0,183.28a82.53,82.53,0,1,1,82.53-82.53A82.62,82.62,0,0,1,384.76,464.69Z" transform="translate(-232.65 -240.76)" style="fill:#808285"/><path d="M302.23,382.16a82.53,82.53,0,1,0,82.53-82.53A82.62,82.62,0,0,0,302.23,382.16Z" transform="translate(-232.65 -240.76)" style="fill:#cf9c51"/><path d="M384.76,240.76v154.6c17.62-13.57,32.7-23.08,32.7-71.68,0-19.64,10.93-25.57,17.72-25.57V270.51a29.42,29.42,0,0,1-29.32-29.75" transform="translate(-232.65 -240.76)" style="fill:#0a4a9b"/><path d="M359.4,368h25.37V341.5H352.88C354,352.82,356.29,361.31,359.4,368Zm-25.05-69.91c5.83,0,14.71,4.39,17.1,18.08h33.32V289.67H334.35Zm29.32-57.35a29.62,29.62,0,0,1-11.41,23.6h32.51v-23.6Z" transform="translate(-232.65 -240.76)" style="fill:#ed1c24"/><path d="M352.06,323.69c0,6.64.29,12.53.82,17.82h31.88V316.19H351.45A43.56,43.56,0,0,1,352.06,323.69Zm32.7,71.68V368H359.4C365.47,381.18,374.7,387.62,384.76,395.37Zm-32.51-131a29.12,29.12,0,0,1-17.91,6.15v19.16h50.42V264.36Z" transform="translate(-232.65 -240.76)" style="fill:#fff"/><path d="M397.22,258.75c-6.8,0-9.11,6.46-9.11,12.29,0,8.64,4.46,18.63,4.46,18.63v1.82H391.4v1.2H390v4.6h1.37c-1.57,3.81-1.17,40.41-1.17,40.41a11,11,0,0,0-2.64,7.14c0,5.77,4.79,10.27,11.06,10.27,7.83,0,11.64-4.21,11.64-11.06,0-5-1-6.95-4.7-8.81,0,0-.19-35-2.05-38h1.17v-4.4l-1.27-.49v-2.06s4-6,4-17.12C407.44,262.95,402.84,258.75,397.22,258.75Z" transform="translate(-232.65 -240.76)" style="fill:#cf9c51"/><path d="M391,275.86c0-.69,1.17,0,1.17,0a5.38,5.38,0,0,0,4.21,2.15c4.31,0,6.07-1.56,8-3.52a41.64,41.64,0,0,1-3.13,16.73h-1.37a36.17,36.17,0,0,1,2.35-10.47c-.07-.79-1.22-.73-2,0-1.76,3.33-2,10.57-2,10.57h-3.62C394.72,285.74,391,279.29,391,275.86Zm1.56,18.2v2.25c2.84,0,3.82.78,6.65.78a8.33,8.33,0,0,0,3.13-.68V294a7.71,7.71,0,0,0-3.13-.69c-1.76,0-2.54.78-4.21.78Z" transform="translate(-232.65 -240.76)" style="fill:#fff"/><path d="M403.33,312.65V323l-10.66-15.75s-.25-6.6.39-7.24C395.16,300.86,403.33,312.65,403.33,312.65Zm-10.27,21.62c-.44.44,0,5.77,0,5.77l3.32,2.45h3.42V340S396.39,335.15,393.06,334.27Z" transform="translate(-232.65 -240.76)" style="fill:#ed1c24"/><path d="M403.33,328.3V337s-8.17-8.66-10.66-12c0-.88-.64-9.54,0-10.17C396.41,318.91,403.33,328.3,403.33,328.3Zm-5.09-29.45,3.91,4.79v-4.6Z" transform="translate(-232.65 -240.76)" style="fill:#808285"/><path d="M392.47,345.13a6.68,6.68,0,0,0,1.37,3.23s0,1.66-.78,1.66c-1.76,0-3-2.35-3-5.38,0-1.27.69-3.72,1.47-3.72S392.47,342.1,392.47,345.13Zm3.33-1.37c-.59,0-1.27,1.27-1.27,2.15,0,2.25,1.76,6.07,2.64,6.07a1.84,1.84,0,0,0,1.71-1.71C396.61,347.16,397.46,343.76,395.8,343.76Zm4,0c-1,2.35.78,7.14,2.64,7.14a2.21,2.21,0,0,0,2.05-2.05C401,346.3,403.63,343.76,399.81,343.76Zm3.72-1.76c0,1.47,1.66,5.38,3.23,5.38.88,0,1.56-1.57,1.56-3.62,0-.88-2.15-2.89-2.89-2.89S403.53,341.51,403.53,342Z" transform="translate(-232.65 -240.76)" style="fill:#fff"/><path d="M232.65,328v23.91c0,66.06,47.27,96.54,93.8,96.54V328H302.18v94.9c-25.91-11-45.08-30.66-45.08-94.9Z" transform="translate(-232.65 -240.76)"/><path d="M305.82,331.6v96.76l-5.07-2.15C276.63,416,254.3,397.36,253.49,331.6h-17.2v20.26c0,62.43,42.86,91.3,86.51,92.82V331.6Z" transform="translate(-232.65 -240.76)" style="fill:#fff"/><path d="M440.39,328V349c0,72.18,49.67,99.39,95,99.39V428C493,428,466,398.11,466,352.32h44.82v29.1h24.54V328Z" transform="translate(-232.65 -240.76)"/><path d="M444,331.6V349c0,68.64,46.41,94.26,87.68,95.68V431.47c-42.24-1.68-69.36-32.32-69.36-79.15v-3.65h52.11v29.1h17.25V331.6Z" transform="translate(-232.65 -240.76)" style="fill:#fff"/><path d="M424.66,403.21s-16.45-.7-24.32-.7c-5.72,0-15.28-.2-23.5,2.5-11.65,3.83-21.47,15.17-21.47,28.3,0,30.62,52.49,39,52.49,58.09,0,9.09-8.57,15.22-19.77,15.22H355.37v20.62h40.07c12.77,0,38-12.75,38-37.07,0-17.5-11.65-26.62-23.61-34.63-14.11-9.45-28.89-15.87-28.89-23.64,0-7,4.55-9.45,29-9.45,3.67,0,14.7.18,14.7.18V403.21Z" transform="translate(-232.65 -240.76)"/><path d="M378,408.47c-9.43,3.1-19,12.63-19,24.84,0,15.08,14.81,24.27,29.14,33.16,12,7.45,23.36,14.49,23.36,24.93,0,10.93-9.85,18.87-23.42,18.87H359v13.33h36.42c11.65,0,34.32-11.8,34.32-33.42,0-15.59-10.4-23.84-22-31.6-3.45-2.31-6.93-4.43-10.3-6.48-11.29-6.87-20.2-12.3-20.2-20.18h0c0-11.27,9.64-13.09,32.69-13.09l11.05.13V406.71c-5.25-.2-15.15-.56-20.68-.56h-1.12C393.6,406.14,385.12,406.12,378,408.47Z" transform="translate(-232.65 -240.76)" style="fill:#fff"/></svg>