<?xml version="1.0" encoding="UTF-8" standalone="no"?>
<svg
   xmlns:dc="http://purl.org/dc/elements/1.1/"
   xmlns:cc="http://creativecommons.org/ns#"
   xmlns:rdf="http://www.w3.org/1999/02/22-rdf-syntax-ns#"
   xmlns:svg="http://www.w3.org/2000/svg"
   xmlns="http://www.w3.org/2000/svg"
   xmlns:sodipodi="http://sodipodi.sourceforge.net/DTD/sodipodi-0.dtd"
   xmlns:inkscape="http://www.inkscape.org/namespaces/inkscape"
   inkscape:version="1.0 (4035a4f, 2020-05-01)"
   sodipodi:docname="logo-new.svg"
   id="svg4163"
   version="1.1"
   fill="none"
   viewBox="0 0 72 96"
   height="96"
   width="72">
  <metadata
     id="metadata4167">
    <rdf:RDF>
      <cc:Work
         rdf:about="">
        <dc:format>image/svg+xml</dc:format>
        <dc:type
           rdf:resource="http://purl.org/dc/dcmitype/StillImage" />
      </cc:Work>
    </rdf:RDF>
  </metadata>
  <sodipodi:namedview
     inkscape:current-layer="svg4163"
     inkscape:window-maximized="1"
     inkscape:window-y="25"
     inkscape:window-x="0"
     inkscape:cy="48"
     inkscape:cx="36"
     inkscape:zoom="6.1029654"
     showgrid="false"
     id="namedview4165"
     inkscape:window-height="793"
     inkscape:window-width="1440"
     inkscape:pageshadow="2"
     inkscape:pageopacity="0"
     guidetolerance="10"
     gridtolerance="10"
     objecttolerance="10"
     borderopacity="1"
     bordercolor="#666666"
     pagecolor="#ffffff" />
  <g
     id="g4156"
     clip-path="url(#clip0_22_46)">
    <path
       style="fill:#ffd600;fill-opacity:1"
       id="path4144"
       fill="#FFD508"
       d="M0 0V71.4494C0 75.4586 6.73537e-07 80.4483 2.48366 84.441C5.40285 89.1352 10.9587 91.4164 19.4585 91.4164C24.4458 91.4164 27.8912 91.9861 30.2006 92.6382C32.443 93.2715 34.3522 94.119 35.6894 96.0035H35.9413C37.2796 94.1202 39.1877 93.2715 41.4301 92.6382C43.7407 91.9861 47.186 91.4164 52.1734 91.4164C60.6755 91.4164 66.229 89.1352 69.1482 84.441C71.6319 80.4483 71.6319 75.4586 71.6307 71.4494V0H0Z" />
    <path
       style="fill:#002942;fill-opacity:1"
       id="path4146"
       fill="#00263E"
       d="M35.8035 93.1503C35.8035 93.1503 38.7121 89.4095 51.733 89.4095C69.4636 89.4095 69.6013 79.1594 69.6013 71.2646V22.5754H35.8188L35.8035 93.1503Z" />
    <path
       style="fill:#ab131c;fill-opacity:1"
       id="path4148"
       fill="#AE1919"
       d="M35.8154 22.5754H2.00467V71.2646C2.00467 79.1594 1.86577 89.4095 19.4586 89.4095C32.4784 89.4095 35.8037 93.1503 35.8037 93.1503L35.8154 22.5754Z" />
    <path
       id="path4150"
       fill="white"
       d="M69.6014 2.00458H2.00464V22.5695H69.6014V2.00458Z" />
    <path
       style="fill:#ab131c;fill-opacity:1"
       id="path4152"
       fill="#AE1919"
       d="M67.6098 10.8175H37.2844V3.9621H34.3464V10.8175H3.95508V13.7555H34.3464V20.6109H37.2844V13.7555H67.6098V10.8175Z" />
    <path
       style="fill:#ffd600;fill-opacity:1"
       id="path4154"
       fill="#FFD508"
       d="M23.5619 58.3708C23.423 58.6486 22.9357 59.2748 23.6314 59.5478L23.3536 60.313C23.3536 60.313 24.5365 60.034 24.5365 59.2689C24.5365 58.7827 24.1187 57.3208 23.8409 56.8347C25.6489 57.1124 27.9454 57.1819 29.1272 57.043C30.6574 56.9041 31.911 56.4862 33.1623 55.6517C33.1623 55.6517 32.5372 56.9736 30.1713 57.3914C31.6834 58.7526 33.3414 59.9424 35.1151 60.9392C35.1151 60.9392 28.4374 62.261 27.6711 62.3999C26.9049 62.5388 26.2751 62.8931 25.9926 63.6559C24.6754 67.3449 28.2291 69.0846 28.2291 69.4319C28.2291 69.8498 26.7683 72.7018 26.7683 72.7018C25.377 71.5189 24.5424 72.0062 24.3329 72.284C24.5424 72.284 24.8897 72.4935 24.8897 72.7018C24.6552 72.5715 24.3927 72.5001 24.1246 72.4935C23.3595 72.4935 23.1511 72.7713 23.0122 73.1197C23.2206 73.1197 23.4984 73.1892 23.5678 73.4728C23.3756 73.3704 23.1591 73.3224 22.9416 73.3339C21.4808 73.3339 22.0376 75.4209 22.0376 75.4209C22.3154 75.2126 22.5943 75.1431 23.1511 75.1431H27.1862C27.4767 75.1469 27.7645 75.0864 28.029 74.9662C28.2935 74.846 28.5282 74.6688 28.7164 74.4475L31.5685 71.5247C31.9864 71.0386 32.0558 70.6207 31.9216 70.2029C31.5037 68.6727 31.1565 66.4468 31.1565 66.4468C31.1565 66.4468 31.3648 66.6551 31.7815 67.0035C32.7367 67.6299 33.7976 68.0778 34.9126 68.3254C34.8432 67.8381 34.0086 65.265 35.1209 63.3816C35.1209 63.3816 34.6348 65.265 35.8166 68.3913C36.8607 70.8256 39.0171 72.7042 42.0787 72.7042C45.6265 72.7042 45.2086 77.7833 45.2086 77.7833C43.7478 76.3909 42.8438 77.0171 42.5013 77.5044C42.7803 77.5044 43.2664 77.5738 43.4759 77.9917C43.4759 77.9917 42.8497 77.7127 42.3624 77.7127C42.1163 77.7005 41.8743 77.7787 41.682 77.9327C41.4896 78.0867 41.3603 78.3057 41.3183 78.5485C41.389 78.5485 41.8751 78.6874 41.9445 78.9651C41.6929 78.9138 41.4363 78.8905 41.1794 78.8957C40.1365 78.8957 40.6227 81.3311 40.6227 81.3311L40.8322 81.1216C40.9656 80.9986 41.1372 80.925 41.3183 80.9132H46.3975C47.0931 80.9132 47.7888 80.3565 47.7888 79.6608V72.9796C47.7888 72.1451 47.232 71.9367 46.4669 71.9367C46.4669 71.9367 46.8848 71.5836 46.8848 70.8232C46.8848 70.8232 46.4669 70.9633 44.7272 70.4065C43.5501 69.9886 42.7803 68.8763 42.8497 65.8159C45.557 67.485 48.7623 68.4596 50.1477 66.5115C50.9834 65.398 51.1918 63.0332 48.8258 61.1546C45.6265 58.3719 46.6694 57.6763 47.5746 56.8417C47.7135 56.9806 48.3397 57.189 48.8964 56.7723C49.5921 56.2155 49.1048 54.9631 49.731 54.5452C49.731 54.5452 48.2702 54.3369 47.4345 54.8983C46.6694 55.3857 47.0178 56.2202 47.1567 56.4286C46.1832 57.3326 44.6519 58.585 47.644 61.2982C49.5274 63.1074 49.5921 64.3586 48.8211 65.2638C47.5004 66.5857 43.7431 64.0114 42.8391 63.2463C42.7697 62.2034 42.2824 61.2287 41.6562 60.4636C40.1954 58.7945 38.3167 56.1508 37.3433 53.0197C37.8771 53.4982 38.5069 53.8574 39.1905 54.0734C39.8741 54.2894 40.5959 54.3571 41.3077 54.2721L39.8411 51.061C40.8157 53.0786 43.2546 54.331 46.1727 53.5659L42.7591 49.5308C44.4977 52.0357 48.0454 53.0786 51.6638 50.8527L45.6853 46.7529C48.1196 48.4914 51.599 47.9358 54.0333 45.431L48.0501 43.2746C54.0333 45.431 55.9814 40.0046 55.9814 40.0046C50.6939 42.2305 45.2698 35.5529 42.1376 40.6308C40.3978 43.9008 38.4498 44.6659 37.2668 45.0826C38.3109 44.3869 39.4244 43.7619 41.0935 40.8392C43.111 37.4256 44.8508 37.222 47.9807 38.1954C48.8152 38.4049 49.4414 38.4049 49.9982 38.1954C52.1546 37.2891 52.3594 35.7588 52.3594 35.7588C47.8371 37.9847 44.0103 32.4889 41.2948 37.0113C39.6257 40.0023 38.5875 41.6019 37.3303 42.9238C37.6835 41.8114 37.8859 39.0983 36.7041 36.1755C38.026 35.8977 37.747 34.3675 37.747 34.3675C37.747 34.3675 37.3303 34.7842 36.2863 34.7842C35.3823 34.7842 35.1727 33.8108 33.1552 33.8108C30.8599 33.8108 29.8864 34.9879 29.8864 34.9879C27.0343 35.0573 26.9637 37.2137 26.9637 37.2137C26.9637 37.2137 30.3773 36.5181 30.5126 39.3007C30.5126 40.4837 29.8864 41.3877 27.9383 42.2917C26.4776 42.9874 24.7378 44.6576 24.1811 46.953C23.7325 48.8511 23.9568 50.846 24.8155 52.5971C24.8586 52.1946 24.9524 51.7991 25.0945 51.42C25.3723 52.1157 26.3457 53.507 26.6942 53.9237C26.3528 54.021 26.0253 54.1614 25.7195 54.3416C24.3988 55.1761 24.1199 55.3857 23.3547 55.5187C23.2158 55.3103 22.798 54.3416 22.1718 52.8114C21.4067 51.0716 19.807 52.8114 19.807 52.8114H20.7804C20.7804 52.8114 20.5721 53.5765 21.4067 53.7848C22.2412 53.9932 22.6591 55.4551 22.6591 55.4551L19.8058 53.7095C19.0407 53.2928 18.345 54.3357 18.1355 54.8866L18.8312 54.6782C18.9243 54.9029 19.0927 55.0882 19.3074 55.2025C19.5221 55.3167 19.7699 55.3527 20.0083 55.3044C21.1913 55.0949 22.4437 56.2779 22.4437 56.2779C22.4437 56.2779 20.9135 56.139 20.2872 56.0695C19.521 56.0001 19.2432 56.9736 19.1043 57.5998L19.7999 57.1819C19.7999 57.1819 20.2166 57.7387 20.7734 57.535C21.3996 57.3255 22.1647 56.4909 23.1393 57.1819C23.6255 57.535 23.6961 58.0871 23.556 58.3649M32.5372 35.4822C32.6067 35.6223 32.4666 35.9001 32.2583 35.9695C31.8416 36.1084 31.4237 35.8306 31.3543 35.6164C31.4254 35.5085 31.5175 35.4159 31.6251 35.3441C31.7326 35.2723 31.8535 35.2228 31.9805 35.1985C33.0234 34.9902 33.6496 35.268 33.6496 35.268C32.8845 35.3374 32.5372 35.4763 32.5372 35.4763M18.3415 43.1357C18.8983 43.1357 19.8023 42.2305 20.5674 43.2051C21.0547 43.9008 20.2896 44.5964 20.2896 44.5964C20.2896 44.5964 19.4539 45.3616 20.0106 46.0572L19.5233 46.5445C19.5233 46.5445 20.8452 46.6834 20.9853 45.9878L21.402 43.9008L23.8374 46.1267C24.6025 44.2433 26.4811 43.7619 26.4811 43.7619C24.3235 42.7178 20.9853 41.9527 20.9853 41.9527L18.9018 39.1724C18.2756 38.3379 17.5093 39.103 17.1621 39.5891L17.7883 39.5197C17.7188 39.7986 17.6494 40.4248 18.6228 40.6332C19.7364 40.8415 20.2931 42.1634 20.2931 42.1634C20.2931 42.1634 18.5534 41.7467 17.9272 41.6066C17.2315 41.5372 16.8843 42.5118 16.8843 43.1368L17.4399 42.5801C17.5171 42.7532 17.6449 42.899 17.8064 42.9984C17.9679 43.0977 18.1557 43.146 18.345 43.1368" />
  </g>
  <defs
     id="defs4161">
    <clipPath
       id="clip0_22_46">
      <rect
         id="rect4158"
         fill="white"
         height="96"
         width="71.6307" />
    </clipPath>
  </defs>
</svg>
