<svg xmlns="http://www.w3.org/2000/svg" viewBox="0 0 456.5 456.5"><title>inter milan logo</title><path d="M512,283.75A228.25,228.25,0,1,0,740.25,512,228.08,228.08,0,0,0,512,283.75Zm0,423.89c-107.93,0-195.64-87.71-195.64-195.64S404.07,316.36,512,316.36,707.64,404.07,707.64,512,619.93,707.64,512,707.64Z" transform="translate(-283.75 -283.75)"/><path d="M394,624.49l4.24-48.58A132.25,132.25,0,0,1,381.57,512,130.19,130.19,0,0,1,405,437.33l-15.33-33.26A163.2,163.2,0,0,0,394,624.49Zm236.08,0a163.2,163.2,0,0,0,4.24-220.42L619,437.33A130.19,130.19,0,0,1,642.43,512a132.25,132.25,0,0,1-16.63,63.91ZM401.79,391.68l24.46,52.5L409,638.52a172.55,172.55,0,0,0,31,19.89l13.69-155.86L480,559.28V482L428.53,371.79A196,196,0,0,0,401.79,391.68ZM544,559.28l26.41-56.74,13.69,155.86a172.55,172.55,0,0,0,31-19.89L597.76,444.18l24.46-52.5a196,196,0,0,0-26.74-19.89L544,482Zm-100.76-195,13.69,29.35a125,125,0,0,1,38.48-11.09v258.9A124.12,124.12,0,0,1,458.85,631l-2.93,34.24a165.67,165.67,0,0,0,112.17,0L565.15,631a127,127,0,0,1-36.52,10.43V382.55a125,125,0,0,1,38.48,11.09l13.69-29.35a162.1,162.1,0,0,0-137.6,0Z" transform="translate(-283.75 -283.75)" style="fill:#fff"/><path d="M512,316.36c-107.93,0-195.64,87.71-195.64,195.64S404.07,707.64,512,707.64,707.64,619.93,707.64,512,619.93,316.36,512,316.36ZM398.2,575.91,394,624.49a163.2,163.2,0,0,1-4.24-220.42L405,437.33A130.19,130.19,0,0,0,381.57,512,132.25,132.25,0,0,0,398.2,575.91Zm41.74,82.5a172.55,172.55,0,0,1-31-19.89l17.28-194.34-24.46-52.5a196,196,0,0,1,26.74-19.89L480,482v77.28l-26.41-56.74ZM512,675a166.07,166.07,0,0,1-56.08-9.78L458.85,631a124.12,124.12,0,0,0,36.52,10.43V382.55a125,125,0,0,0-38.48,11.09L443.2,364.29a162.1,162.1,0,0,1,137.6,0l-13.69,29.35a125,125,0,0,0-38.48-11.09v258.9A127,127,0,0,0,565.15,631l2.93,34.24A166.07,166.07,0,0,1,512,675Zm72.06-16.63L570.37,502.54,544,559.28V482l51.52-110.21a196,196,0,0,1,26.74,19.89l-24.46,52.5L615,638.52A172.55,172.55,0,0,1,584.06,658.41Zm46-33.91-4.24-48.58A132.25,132.25,0,0,0,642.43,512,130.19,130.19,0,0,0,619,437.33l15.33-33.26A163.2,163.2,0,0,1,630,624.49Z" transform="translate(-283.75 -283.75)" style="fill:#001ea0"/></svg>