<svg xmlns="http://www.w3.org/2000/svg" viewBox="0 0 77.71 158.82"><title>Juventus FC logo</title><path d="M535,531.21c0,30.76-12.67,38.53-38.3,51.56A117.62,117.62,0,0,0,512,591.41c19.79-9.65,38.85-22.24,38.85-55.88v-71H535Zm-15-66.65H473.15v14.1H504.2v45.16c0,20.61-1.22,22.55-27.28,34.64A50.66,50.66,0,0,0,484.78,572c29.47-13.53,35.2-20.49,35.2-43.85ZM479.3,432.64v12.53c0,3.2-1.82,5.38-5.63,5.38h-.52v-2.66h.5a2.49,2.49,0,0,0,2.76-2.79v-9.84h-2.69v-2.61ZM484.58,448h2.66V432.64h2.89V447.7a2.54,2.54,0,0,1-2.89,2.84h-2.66a2.54,2.54,0,0,1-2.89-2.84V432.64h2.89Zm13.5-4.4V432.64H501v11c0,5-2.51,6.81-7,6.81H492.5V432.64h2.89v14.93h.15c1.84,0,2.54-1.79,2.54-4m8.1-8.2v4.74h3.34l-.5,2.56h-2.84v5.1h4.23l-.5,2.71h-6.62V432.64h6.42l.5,2.72Zm11.62-2.72h2.76v17.83H517.8v-6.1l-2.72-6.2h-.15v12.29h-2.76V432.64h2.71l2.74,6.71h.18Zm12.73,2.69h-2.79v15.14h-2.89V435.33h-2.79l.5-2.69H530ZM534.91,448h2.66V432.64h2.89V447.7a2.55,2.55,0,0,1-2.89,2.84h-2.66A2.54,2.54,0,0,1,532,447.7V432.64h2.89Zm7.7-3.38h2.84v3.56h2.61v-2.49a2.28,2.28,0,0,0-1.17-2.33l-2.74-1.77a3.4,3.4,0,0,1-1.47-2.82v-3.28a2.61,2.61,0,0,1,2.66-2.87H548c1.92,0,2.66,1,2.66,2.84v2.23l-2.76.77v-3.51h-2.49v2.71a2.09,2.09,0,0,0,1.12,2l2.61,1.66a3.56,3.56,0,0,1,1.69,3.18v3.43a2.42,2.42,0,0,1-2.71,2.64H545.5c-1.92,0-2.89-.77-2.89-2.66Z" transform="translate(-473.15 -432.59)"/></svg>