<?xml version="1.0" encoding="UTF-8" standalone="no"?>
<svg
   xmlns:ns="&amp;ns_sfw;"
   xmlns:dc="http://purl.org/dc/elements/1.1/"
   xmlns:cc="http://creativecommons.org/ns#"
   xmlns:rdf="http://www.w3.org/1999/02/22-rdf-syntax-ns#"
   xmlns:svg="http://www.w3.org/2000/svg"
   xmlns="http://www.w3.org/2000/svg"
   xmlns:sodipodi="http://sodipodi.sourceforge.net/DTD/sodipodi-0.dtd"
   xmlns:inkscape="http://www.inkscape.org/namespaces/inkscape"
   inkscape:version="1.0 (4035a4f, 2020-05-01)"
   sodipodi:docname="Stemma_della_Società_Sportiva_Lazio.svg"
   xml:space="preserve"
   style="enable-background:new 0 0 2388.6 1592.8;"
   viewBox="0 0 2388.6 1592.8"
   y="0px"
   x="0px"
   id="Layer_1"
   version="1.1"><defs
   id="defs7039" /><sodipodi:namedview
   inkscape:current-layer="Layer_1"
   inkscape:window-maximized="1"
   inkscape:window-y="25"
   inkscape:window-x="0"
   inkscape:cy="1032.5058"
   inkscape:cx="1796.0199"
   inkscape:zoom="0.27103442"
   showgrid="false"
   id="namedview7037"
   inkscape:window-height="793"
   inkscape:window-width="1440"
   inkscape:pageshadow="2"
   inkscape:pageopacity="0"
   guidetolerance="10"
   gridtolerance="10"
   objecttolerance="10"
   borderopacity="1"
   bordercolor="#666666"
   pagecolor="#ffffff" />
<style
   id="style6898"
   type="text/css">
	.st0{fill-rule:evenodd;clip-rule:evenodd;fill:#003876;}
	.st1{fill-rule:evenodd;clip-rule:evenodd;fill:#FFFFFF;}
	.st2{fill-rule:evenodd;clip-rule:evenodd;fill:#77D2F7;}
	.st3{fill-rule:evenodd;clip-rule:evenodd;fill:#D1A32C;}
</style>
<metadata
   id="metadata6900">
	<ns:sfw>
		<ns:slices />
		<ns:sliceSourceBounds
   y="-300.9"
   x="-690"
   width="2388.6"
   height="1592.8"
   bottomLeftOrigin="true" />
	</ns:sfw>
<rdf:RDF><cc:Work
     rdf:about=""><dc:format>image/svg+xml</dc:format><dc:type
       rdf:resource="http://purl.org/dc/dcmitype/StillImage" /></cc:Work></rdf:RDF></metadata>
<g
   id="g7034">
	<g
   id="g6932">
		<path
   style="fill:#003a70;fill-opacity:1"
   id="path6902"
   d="M1334.6,563.5h247v538.9c0,0,9.7,368.7-408.4,490.4c0,0-377.6-75.9-419.9-483.4V566.1h192.3L1334.6,563.5z"
   class="st0" />
		<path
   id="path6904"
   d="M1327.7,580.3h236.8V1097c0,0,9.3,353.4-391.5,470.1c0,0-362-72.7-402.5-463.3V582.9h184.4L1327.7,580.3z"
   class="st1" />
		<path
   id="path6906"
   d="M1300.8,838.9h197V1093c0,0,7.8,294.1-325.8,391.2c0,0-301.1-60.5-334.9-385.5V839.2h153.4L1300.8,838.9z"
   class="st0" />
		<path
   style="fill:#74d1ea;fill-opacity:1"
   id="path6908"
   d="M1294.2,854.9h187.2v241.6c0,0,7.4,279.5-309.6,371.7c0,0-286.2-57.5-318.3-366.4V855.2h145.7L1294.2,854.9z"
   class="st2" />
		<path
   style="fill:#003a70;fill-opacity:1"
   id="path6910"
   d="M1049.9,788c3.7-0.4,6.4-1.4,8.2-2.8c1.8-1.4,3.2-4.3,4.4-8.6l19.1-71.2c0.6-2,1-3.7,1.2-5.1    c0.3-1.3,0.4-2.6,0.4-3.6c0-2.7-0.7-4.4-2.2-5c-1.5-0.7-4.5-1.3-9.2-1.7v-4.1h49.4v4.1c-5.4,0.6-9.1,1.5-10.9,2.6    c-1.9,1.1-3.5,4.1-4.8,8.8l-20.2,75.8c-0.2,0.8-0.4,1.6-0.5,2.3c-0.1,0.8-0.1,1.6-0.1,2.6c0,1.7,0.7,3,2.3,3.8    c1.5,0.7,3.6,1.1,6.4,1.1c10.6,0,19.9-1.8,27.6-5.6c7.8-3.7,14.7-10.7,20.6-20.9l3.7,0.7l-9.1,30.9h-86.3V788z"
   class="st0" />
		<path
   style="fill:#003a70;fill-opacity:1"
   id="path6912"
   d="M1250.2,789.2l77.6-96.1h-12.3c-10.1,0.3-18.8,2.8-26.1,7.7c-4.8,3.1-10.2,8.4-16.1,15.7l-4.3-0.6l11.5-28.3    h74.2l-0.4,4.6l-77.6,96h11.2c8.9,0,16.4-1.1,22.5-3.2c11.2-3.9,20.4-11.6,27.6-22.8l4.2,0.8l-12.2,30.8h-80.5L1250.2,789.2z"
   class="st0" />
		<path
   style="fill:#003a70;fill-opacity:1"
   id="path6914"
   d="M1345.5,788c3.8-0.4,6.6-1.4,8.4-2.8c1.8-1.4,3.3-4.3,4.5-8.6l19.5-71.2c0.5-2,0.9-3.7,1.2-5.1    c0.3-1.3,0.5-2.6,0.5-3.6c0-2.7-0.8-4.4-2.2-5c-1.5-0.7-4.6-1.3-9.4-1.7v-4.1h47.2v4.1c-3.9,0.5-6.7,1.5-8.5,2.8    c-1.7,1.3-3.1,4.2-4.3,8.6l-19.6,71.3l-1.2,5.5c-0.1,0.5-0.2,1.1-0.3,1.7c-0.1,0.5-0.1,1-0.1,1.5c0,2.7,0.8,4.4,2.2,5.1    c1.5,0.7,4.6,1.3,9.4,1.7v4.1h-47.2V788z"
   class="st0" />
		<path
   id="path6916"
   d="M1062.3,854.7l221.6-0.1v566.9v-0.6c0,0-52.2,33.1-112.7,46.8c0,0-63.1-15-109-43.7V854.7z"
   class="st1" />
		<path
   style="fill:#003a70;fill-opacity:1"
   id="path6918"
   d="M831.4,798.4l8.2-35.5l4.5,0.3c-0.1,5,0.1,8.8,0.5,11.1c0.8,3.8,2.3,7.2,4.6,10.3c2.2,2.7,4.7,4.8,7.6,6.3    c2.9,1.3,6.2,2.1,9.7,2.1c6.4,0,11.4-2,15.2-6c3.8-4.1,5.8-8.8,6.2-14.2c0.5-6.6-5.5-15-17.6-25.2c-12.2-10.6-18-20.4-17.4-29.4    c0.6-8.5,4-15.7,10.1-21.7c6.1-6,14.3-9,24.5-9c2.8,0,5.7,0.3,8.6,0.9c1.9,0.4,3.7,0.8,5.1,1.3l3.9,1.3c0.9,0.3,1.7,0.5,2.6,0.7    c0.9,0.2,1.7,0.3,2.5,0.3c1.8,0,3.2-0.4,4.3-1.2c1-0.8,1.9-1.7,2.8-2.9h4.7l-8.6,31.7l-4.2-0.5l-0.2-5.2    c-0.3-4.9-1.6-9.1-3.7-12.6c-3.3-5.5-8.5-8.3-15.6-8.3c-6.1-0.1-10.7,2.2-13.8,6.6c-2.1,3-3.2,6.2-3.5,9.6    c-0.2,3.6,0.4,6.8,2.2,9.6c0.9,1.6,2.5,3.2,4.5,5l12.9,11.2c4.6,4,8.4,8.5,11.4,13.6c3.1,5,4.4,10.8,3.9,17.3    c-0.6,8.4-4.4,15.9-11.5,22.6c-7,6.7-16.3,10.1-27.7,10.1c-2.9,0-5.8-0.3-8.8-0.9c-2.8-0.5-5.6-1.2-8.4-2.3l-3.9-1.5    c-1.3-0.5-2.2-0.9-2.7-1c-0.5-0.1-1.1-0.2-1.7-0.2c-1.8,0-3.1,0.4-3.9,1.3c-0.8,0.9-1.7,2.3-2.8,4.4H831.4z"
   class="st0" />
		<path
   style="fill:#003a70;fill-opacity:1"
   id="path6920"
   d="M908.1,777.7c2.5-2.3,5.3-3.4,8.5-3.4c3.2,0,5.9,1.1,8.1,3.5c2.2,2.3,3.1,5,2.9,8.2c-0.2,3.2-1.6,6.1-4.1,8.4    c-2.4,2.3-5.2,3.4-8.5,3.4c-3.2,0-5.8-1.1-8-3.4c-2.2-2.3-3.1-5.1-2.9-8.4C904.4,782.7,905.6,780,908.1,777.7"
   class="st0" />
		<path
   style="fill:#003a70;fill-opacity:1"
   id="path6922"
   d="M930.7,798.4l8.2-35.4l4.5,0.3c-0.1,5.1,0.1,8.8,0.5,11.1c0.7,3.8,2.3,7.3,4.6,10.3c2.2,2.7,4.8,4.8,7.7,6.3    c2.9,1.4,6.2,2.1,9.7,2.1c6.4,0,11.4-2,15.2-6c3.7-4.1,5.8-8.8,6.2-14.2c0.5-6.6-5.5-15-17.6-25.2c-12.2-10.6-18-20.4-17.4-29.4    c0.6-8.5,3.9-15.7,10.1-21.7c6.1-6,14.3-9,24.5-9c2.9,0,5.8,0.3,8.7,0.9c1.9,0.4,3.6,0.8,5.1,1.3l3.9,1.4c0.9,0.3,1.7,0.5,2.6,0.6    c0.9,0.2,1.7,0.3,2.5,0.3c1.8,0,3.2-0.4,4.3-1.2c1-0.8,1.9-1.7,2.8-2.8h4.7l-8.6,31.7l-4.2-0.5l-0.2-5.2    c-0.3-4.9-1.6-9.1-3.7-12.6c-3.3-5.5-8.5-8.3-15.7-8.3c-6.1,0-10.6,2.2-13.7,6.6c-2.1,2.9-3.2,6.1-3.5,9.5    c-0.2,3.6,0.4,6.8,2.2,9.6c0.9,1.6,2.5,3.2,4.5,5l12.9,11.2c4.5,3.9,8.3,8.5,11.4,13.6c3.1,5.1,4.4,10.8,3.9,17.3    c-0.6,8.4-4.4,15.9-11.5,22.7c-7,6.6-16.3,10-27.7,10c-2.9,0-5.8-0.3-8.7-0.8c-2.8-0.5-5.6-1.3-8.4-2.3l-3.9-1.5    c-1.3-0.5-2.2-0.9-2.7-1c-0.5-0.1-1.1-0.2-1.8-0.2c-1.7,0-3,0.4-3.8,1.3c-0.8,0.9-1.7,2.3-2.8,4.4H930.7z"
   class="st0" />
		<path
   style="fill:#003a70;fill-opacity:1"
   id="path6924"
   d="M1012.5,777.7c2.5-2.3,5.3-3.4,8.5-3.4c3.3,0,5.9,1.1,8.1,3.5c2.2,2.3,3.1,5,2.9,8.2    c-0.3,3.2-1.6,6.1-4.1,8.3c-2.4,2.3-5.3,3.4-8.5,3.4c-3.2,0-5.8-1.1-8-3.4c-2.2-2.3-3.1-5.1-2.8-8.3    C1008.8,782.7,1010.1,780,1012.5,777.7"
   class="st0" />
		<path
   style="fill:#003a70;fill-opacity:1"
   id="path6926"
   d="M1432.1,709.4c13.8-16.2,29.3-24.3,46.5-24.3c11.4,0,20.8,3.4,28.2,10.3c7.3,6.9,11,16.2,11,27.9    c0,17.1-6.5,33.4-19.4,48.7c-13.9,16.5-29.8,24.7-47.8,24.7c-11.3,0-20.5-3.5-27.7-10.3c-7.1-6.9-10.6-16.1-10.6-27.7    C1412.3,741.4,1418.9,724.9,1432.1,709.4 M1437,781.7c2.5,6.3,7.2,9.5,13.8,9.5c6.2,0,11.9-2.3,17-6.9    c5.1-4.6,10.4-13.5,15.9-26.5c3.5-8.2,6.2-16.9,8.2-26c1.9-9.1,2.9-16.4,2.9-22.1c0-5.3-1.3-9.8-3.9-13.6    c-2.6-3.8-6.7-5.7-12.3-5.7c-13.2,0-24.3,11.7-33.3,35.1c-6.9,17.8-10.2,32.6-10.2,44.5C1435.1,774.5,1435.8,778.4,1437,781.7"
   class="st0" />
		<path
   style="fill:#003a70;fill-opacity:1"
   id="path6928"
   d="M1210.8,753.5l-0.5-38.6l-28.9,38.6H1210.8z M1140,789c3.1-0.9,5.4-1.8,6.9-2.9c2.3-1.5,5-4.3,8.1-8.4    l72-93.4h4.2l2.4,90.8c0.2,6.1,0.9,9.8,2.2,11.2c1.3,1.4,4.4,2.2,9.2,2.5l-0.5,3.8h-48.2l0.6-3.8c4.6-0.4,7.8-1.1,9.8-2.2    c2.1-1.2,3.4-3.5,3.9-7c0.2-1.2,0.3-4.1,0.4-8.5c0-0.9,0-4.8,0-11.6h-34.1l-11.6,16.1c-0.8,1.1-1.6,2.3-2.2,3.6    c-0.6,1.3-1.1,2.5-1.2,3.8c-0.3,2.2,0.2,3.5,1.4,4.2c1.2,0.6,3.9,1.1,8.1,1.6l-0.5,3.8h-31.2L1140,789z"
   class="st0" />
		<path
   style="fill:#74d1ea;fill-opacity:1"
   id="path6930"
   d="M1676.7,678.1c32.4,0,58.6-26.4,58.6-58.9c0-32.3-26.2-58.6-58.6-58.6c-32.6,0-58.9,26.4-58.9,58.6    C1617.8,651.7,1644.1,678.1,1676.7,678.1 M1676.7,670.3c-28.6,0-49.6-22.3-49.6-51.2c0-28.5,21-50.9,49.6-50.9    c28.5,0,49.3,22.4,49.3,50.9C1726.1,648,1705.3,670.3,1676.7,670.3 M1686.2,621.8c11.6-0.3,20.6-5.1,20.6-18    c0-10.9-5.9-17.4-23.2-17.4h-28.7V652h8.1v-30.2h14.7l18.8,30.2h9.6L1686.2,621.8z M1662.9,615.4v-23.3h18.7    c8.1,0,16.4,1.2,16.4,11.5c0,13.3-13.7,11.8-22.9,11.8H1662.9z"
   class="st2" />
	</g>
	<g
   id="g7032">
		<path
   style="fill:#d69a2d;fill-opacity:1"
   id="path6934"
   d="M937.6,569.1l-8.4-4.8c0,0-17.1-1.2-36.8-21c0,0,48.8-15.9,62-32.9c0,0-15.1-4.7-17.9-12.3    c0,0,47-14,51.7-23.5c0,0-98.7-19.8-115.6-56.5c0,0-53.5-1-72.4-34.8c-18.8-33.8-1.8-1.8-1.8-1.8s-34.8,8.4-55.5-27.3    c0,0-37.6,0-56.4-28.3c0,0-62-8.5-82.8-35.8c0,0-75.2-11.3-110-48s0-1.9,0-1.9s-46,0-79-35.8c0,0-69.5-3.8-107.1-51.8    c0,0-89.3-12.3-128.8-64.9c0,0-84.6-10.4-135.4-50.9C-7.4-3.7,0.4,0.1,0.4,0.1l800.1,0.6c0,0,162.6-9.8,261.8,112.4    c99.1,122.1,207.5,57.5,260.7,13.7c53.1-43.8,101-125.1,279.3-124.9c178.3,0.2,786.2,0.6,786.2,0.6s-55.2,60.5-185.5,89.5    c0,0-50,54.2-132.3,65.6c0,0-26.1,37.6-118.9,56.2c0,0-23.9,33.4-83.4,40.6c0,0-22.9,36.5-85.5,37.5c-62.6,1-2.1,1-2.1,1    s-29.2,47-98,52.1c-68.8,5.2-2.1,0-2.1,0s-14.6,18.7-62.5,28.1c-48,9.3-3.1,0-3.1,0s-8.3,26.1-62.6,31.3c-54.2,5.1-4.2,1-4.2,1    s-6.3,15.6-36.5,19.8c-30.3,4.1,0,0,0,0s-50,52.1-129.3,61.4c0,0-4.4,23.1-49.3,55.4c0,0,11.8,17.2,12.8,35.1v-0.6    c0,0,4.1-15-1.3,9c-5.4,24-52.6,44.9-52.6,44.9c29.3-49.7-3-54.6-3-54.6c7.2,28.8-53.3,51.5-53.3,51.5c28.7-39-2.4-54-2.4-54    c9,39-57.5,49.7-57.5,49.7c35.3-43.1-10.2-55.9-10.2-55.9l-42.5-0.1c3.6,53.4-62.3,66.6-62.3,66.6c34.7-49.1-0.6-55.8-0.6-55.8    c7.8,36-47.9,54.5-47.9,54.5c27.5-53.3-10.3-59.3-10.3-59.3c15.6,41.9-71.8,68.2-59.2,60.5c12.6-7.8,22.2-41.9,22.2-41.9    C974.7,579.3,937.6,569.1,937.6,569.1"
   class="st3" />
		<path
   id="path6936"
   d="M435.2,19.4c0,0,13.2,23.6,48.1,37.7h-278c0,0-121.6,1.8-154.5-37.7H435.2z"
   class="st1" />
		<path
   id="path6938"
   d="M576.4,92.9c0,0,13.1,22,48,36.1H372.1c0,0-121.6,3.4-154.6-36.1H576.4z"
   class="st1" />
		<path
   id="path6940"
   d="M697,157c0,0,13.2,18.3,48.1,32.4H492.8c0,0-118.8,3.4-154.6-32.4H697z"
   class="st1" />
		<path
   id="path6942"
   d="M779.2,206.9c0,0,13.2,10,48,24.1H605.8c0,0-119.7,3.2-154.5-24.1H779.2z"
   class="st1" />
		<path
   id="path6944"
   d="M867.8,253.1c0,0,4.9,6.2,39.8,20.3H694.4c0,0-119.7,7-154.5-20.3H867.8z"
   class="st1" />
		<path
   id="path6946"
   d="M938.6,291.7c0,0,0.4,6.2,35.2,20.4H781.1c0,0-119.7,7-154.5-20.4H938.6z"
   class="st1" />
		<path
   id="path6948"
   d="M1024.6,330.4c0,0-14.7,1.7,20.2,15.8H864c0,0-106.4,2.1-151.5-15.8H1024.6z"
   class="st1" />
		<path
   id="path6950"
   d="M1041.9,361.7c0,0,14.3-5.8-10.8,15.8H923.6c0,0-106.5,2.1-151.5-15.8H1041.9z"
   class="st1" />
		<path
   id="path6952"
   d="M1020.5,394.6c0,0,14.3-8.9-10.8,12.8H982c0,0-106.5,5.1-151.6-12.8H1020.5z"
   class="st1" />
		<path
   id="path6954"
   d="M994.8,419.9c0,0,14.3-8.9-10.7,12.8h-27.8c0,0-28.8,5.1-73.9-12.8H994.8z"
   class="st1" />
		<path
   id="path6956"
   d="M1950.5,19.4c0,0-13.2,23.6-48.1,37.7h278c0,0,121.6,1.8,154.5-37.7H1950.5z"
   class="st1" />
		<path
   id="path6958"
   d="M1809.3,92.9c0,0-13.2,22-48.1,36.1h252.4c0,0,121.5,3.4,154.5-36.1H1809.3z"
   class="st1" />
		<path
   id="path6960"
   d="M1688.7,157c0,0-13.2,18.3-48.1,32.4H1893c0,0,118.8,3.4,154.6-32.4H1688.7z"
   class="st1" />
		<path
   id="path6962"
   d="M1606.5,206.9c0,0,10,3.4,10,21.9h163.4c0,0,119.7,5.5,154.5-21.9H1606.5z"
   class="st1" />
		<path
   id="path6964"
   d="M1420.8,372.6c0,0,1.3-9.2-9.2,11.8l39.4,0.6c0,0,106.4,5.1,151.5-12.7L1420.8,372.6z"
   class="st1" />
		<path
   id="path6966"
   d="M1395.9,425.1c0,0-19.3-8.8,5.7,12.9h27.7c0,0,28.9,5.1,73.9-12.8L1395.9,425.1z"
   class="st1" />
		<path
   id="path6968"
   d="M1206.9,195.5h335.9c0,0,48.5-3.9,53.8,36.7c0,0,3.9,9.2-9.2,10.5c-13.1,1.3-136.4,0-136.4,0l-11.8,14.4h91.9    c0,0,15.7-1.3,14.5,14.5l57.7-25h57.7c0,0,66.9-5.2,59.1,69.5c0,0-9.2-32.8-57.7-32.8h-133.9l-11.8,14.4l150.9,1.3    c0,0,32.9,2.6,40.7,26.3h-207.3c0,0-10.5-13.1-38-2.6c-27.5,10.5-2.6,0-2.6,0s-65.6,42-97.1,36.8c-31.5-5.3-39.4-22.3-22.3-39.4    c0,0-74.8,7.9-18.4-31.5c0,0-40.7-14.4,30.2-48.5h-72.1c0,0-47.3-3.9-66.9-31.5S1206.9,195.5,1206.9,195.5"
   class="st1" />
		<path
   id="path6970"
   d="M1466.3,342.2c0,0-3.5-3.6-25.9,12.8h64.4c0,0,128.6,9.8,151.5-12.8H1466.3z"
   class="st1" />
		<path
   id="path6972"
   d="M1720.5,250.6c0,0-3.2-2.6,10.8,21.1h61.5c0,0,33.4-2.8,58.1-21.1H1720.5z"
   class="st1" />
		<path
   id="path6974"
   d="M1402.4,395.5c0,0,1.3-9.2-9.2,11.8l5.3,0.7c0,0,123.3,9.2,151.5-12.1L1402.4,395.5z"
   class="st1" />
		<path
   id="path6976"
   d="M1738.4,291.3l-1.3,15.7c0,0,28.9-7.8,24.9-15.7H1738.4z"
   class="st1" />
		<path
   id="path6978"
   d="M519.4,47.2c0,0-42-5.7-51.2-27.8h366.1c0,0,116.8,4.2,204.7,94.7c87.9,90.5,107.6,80,148.3,83.9l18.4,28.9    c0,0-23.6,5.2-57.7-10.5h-290c0,0-38,0-47.2-14.4h305.7c0,0-26.3-10.5-40.7-25H797.6c0,0-57.7,2.6-66.9-19.7h313.7    c0,0-13.1-27.6-49.9-44.6H649.3c0,0-32.8-1.3-43.3-21h367.4c0,0-42-35.4-87.9-44.6H519.4z"
   class="st1" />
		<path
   id="path6980"
   d="M930.1,265c0,0-23.6-5.2-32.7-14.4h275.5c0,0,30.2-17.1,49.9-10.5c0,0,18.4,11.8,26.3,9.1    c0,0-32.8,35.4-108.9,31.6c0,0,1.3-11.8,13.1-17.1L930.1,265z"
   class="st1" />
		<path
   id="path6982"
   d="M1264.7,251.9h43.3c0,0-1.4,25-63,22.3L1264.7,251.9z"
   class="st1" />
		<path
   id="path6984"
   d="M1293.5,282.1c0,0-19.7,10.5-38,9.2c0,0-6.5,11.8-31.5,26.3c0,0,44.6,15.7,77.4-27.6L1293.5,282.1z"
   class="st1" />
		<path
   id="path6986"
   d="M1227.9,278.2c0,0-30.2,14.4-52.5,11.8c0,0-10.5,19.7-26.2,30.1c0,0,52.5,14.4,91.9-32.8L1227.9,278.2z"
   class="st1" />
		<path
   id="path6988"
   d="M1288.3,318.8c0,0-15.8,7.9-30.2,10.5c-14.4,2.6-2.6,1.4-2.6,1.4s-2.6,13.1-18.4,19.7c0,0,38,23.6,70.8-13.1    c0,0-18.4-7.9-18.4-14.4C1289.6,316.2,1288.3,318.8,1288.3,318.8"
   class="st1" />
		<path
   id="path6990"
   d="M1212.2,326.7c0,0-28.9,9.2-38,7.9c0,0-2.6,13.1-19.7,18.4c-17.1,5.2-2.6,0-2.6,0s55.1,21,83.9-19.7    L1212.2,326.7z"
   class="st1" />
		<path
   id="path6992"
   d="M1227.9,358.2c0,0-13.1,10.5-49.9,21c0,0,27.6,39.3,99.7-6.6c0,0-36.7-1.3-43.3-9.2    C1227.9,355.6,1227.9,358.2,1227.9,358.2"
   class="st1" />
		<path
   id="path6994"
   d="M1234.5,404.1c0,0-11.8,17-27.6,21c-15.7,3.9-3.9,1.4-3.9,1.4s45.5,12.4,74.8-31.5    C1293.5,371.3,1259.5,402.8,1234.5,404.1"
   class="st1" />
		<path
   id="path6996"
   d="M1209.6,405.4c0,0-34.1,1.3-38-14.4c0,0-25,13.1-40.7,10.5c-15.8-2.6-2.6,0-2.6,0s-3.9,13.1-18.4,21    c0,0,47.2,23.6,86.6-6.6C1235.8,385.8,1209.6,405.4,1209.6,405.4"
   class="st1" />
		<path
   id="path6998"
   d="M1136.1,359.5c0,0,11.8,7.9,34.1,9.2c0,0-19.7,30.2-76.1,17c-56.5-13.1-2.6-1.3-2.6-1.3s14.4-9.2,18.4-15.7    c0,0,15.7-3.9,21-6.6L1136.1,359.5z"
   class="st1" />
		<path
   id="path7000"
   d="M1136.1,325.4c0,0,3.9,9.2,19.7,6.5c0,0-23.6,31.5-82.6,23.7c-59.1-7.9-2.6-1.3-2.6-1.3s28.9-14.4,35.4-24.9    L1136.1,325.4z"
   class="st1" />
		<path
   id="path7002"
   d="M1058.7,364.8c0,0,25,9.2,28.9,6.5c0,0-11.8,11.8-42,15.8c-30.2,3.9-2.6,0-2.6,0L1058.7,364.8z"
   class="st1" />
		<path
   id="path7004"
   d="M1077,392.3c0,0,21,13.1,31.5,10.5c0,0-2.6,32.8-93.2,19.7c-90.5-13.1-2.5-1.3-2.5-1.3s45.9-18.4,55.1-24.9    C1077,389.7,1077,392.3,1077,392.3"
   class="st1" />
		<path
   id="path7006"
   d="M1147.9,291.3c0,0,3.9,24.9-53.8,30.2c-57.8,5.2-2.6,0-2.6,0l10.5-18.4H986.5c0,0-22.3-5.2-26.3-11.8H1147.9z    "
   class="st1" />
		<path
   id="path7008"
   d="M1040.3,328h32.8c0,0,2.1,8.1-13.1,13.1L1040.3,328z"
   class="st1" />
		<path
   id="path7010"
   d="M966.8,503.8c0,0,46-19.7,89.2-51.2c0,0,63-42,84-6.5c21,35.4-98.4,62.9-98.4,62.9L966.8,503.8z"
   class="st1" />
		<path
   id="path7012"
   d="M966.8,518.3c0,0,59.1,11.8,81.4,2.6c0,0-56.4,44.6-123.3,28.9c-67-15.7,0-2.6,0-2.6s19.7-9.2,34-21    C973.4,514.3,966.8,518.3,966.8,518.3"
   class="st1" />
		<path
   id="path7014"
   d="M953.7,568.1c0,0,44.6-21,22.3,13.1L953.7,568.1z"
   class="st1" />
		<path
   id="path7016"
   d="M1004.9,572.1c0,0,49.8-34.1,30.2,9.1c0,0-11.8-13.1-19.7-7.8c-7.8,5.2-2.5,0-2.5,0L1004.9,572.1z"
   class="st1" />
		<path
   id="path7018"
   d="M1060,573.4c0,0,43.3-22.3,31.5,10.5c0,0-6.6-10.5-21-7.8L1060,573.4z"
   class="st1" />
		<path
   id="path7020"
   d="M1204.3,502.5c0,0,87.9-48.6,101-64.3c0,0,42-43.3,68.2-14.4c26.2,28.9-60.4,69.5-76.1,74.8    C1281.7,503.8,1204.3,502.5,1204.3,502.5"
   class="st1" />
		<path
   id="path7022"
   d="M1199.1,513c0,0,56.4,13.1,95.7,0c0,0-40.6,55.1-148.3,32.8c0,0,31.5-13.1,43.3-24.9    C1201.7,509.1,1199.1,513,1199.1,513"
   class="st1" />
		<path
   id="path7024"
   d="M1183.3,566.8c0,0,44.6-21,22.3,13.1L1183.3,566.8z"
   class="st1" />
		<path
   id="path7026"
   d="M1238.4,570.8c0,0,49.9-34.1,30.2,9.2c0,0-11.8-13.1-19.7-7.9c-7.8,5.2-2.6,0-2.6,0L1238.4,570.8z"
   class="st1" />
		<path
   id="path7028"
   d="M1289.6,572.1c0,0,53.8-27.6,31.4,10.5c0,0-6.5-10.5-21-7.9L1289.6,572.1z"
   class="st1" />
		<path
   id="path7030"
   d="M1269.6,186.2c0,0,60.7-34.1,118.4-91.9c57.8-57.7,137.8-80.5,202.1-73.7h320.1c0,0,7.9,14.7-39.3,27.8H1531    c0,0-22.3-11.8-95.8,39.4l346.5,1.3c0,0-14.5,23.8-67,26.4l-307-0.1l-56.5,40.6c0,0,265-1.3,316,0c-28.2,21.4-66.7,21.2-66.7,21.2    h-272.9c0,0-24.2,12.2-37.6,12.2C1274.2,189.3,1269.6,186.2,1269.6,186.2"
   class="st1" />
	</g>
</g>
</svg>
