<svg id="Layer_1" data-name="Layer 1" xmlns="http://www.w3.org/2000/svg" viewBox="0 0 76.77 100"><title>AS Roma logo - Brandlogos.net</title><g id="ASROMA_CREST_COLOR_RGB_final" data-name="ASROMA CREST COLOR RGB final"><path id="Path_96" data-name="Path 96" d="M254.89,305.33a77.68,77.68,0,0,1-23.2-21.17,73.86,73.86,0,0,1-12-25.81l-.2-.82-.73-3.53a74,74,0,0,1,.07-26.85l.26-1.44,1.42-.3a71.41,71.41,0,0,0,17.87-6.7c11.92-6.69,15.94-10.94,16-11L256,206l1.59,1.74s4.05,4.27,16,11a71.48,71.48,0,0,0,17.86,6.7l1.43.3.26,1.43a73.88,73.88,0,0,1,.07,26.84l-.23,1.27-.7,3.08a73.8,73.8,0,0,1-12,25.81,77.67,77.67,0,0,1-23.2,21.17L256,306l-1.11-.67Z" transform="translate(-217.61 -206)"/><path id="Path_97" data-name="Path 97" d="M291.28,227.18a74.18,74.18,0,0,1-18.64-7C260,213.13,256,208.78,256,208.78s-4,4.35-16.64,11.45a74.21,74.21,0,0,1-18.64,7,71.89,71.89,0,0,0,.45,28.73h69.66a71.89,71.89,0,0,0,.45-28.73" transform="translate(-217.61 -206)" style="fill:#ffba00"/><path id="Path_98" data-name="Path 98" d="M256,304.11c18.34-11,30.41-28.09,34.63-47.19H221.36c4.22,19.1,16.29,36.23,34.63,47.19" transform="translate(-217.61 -206)" style="fill:#990a2c"/><path id="Path_99" data-name="Path 99" d="M231.13,269.18c0-2.36,0-2.8,0-3.29s-.15-.78-.67-.89a3.25,3.25,0,0,0-.61,0c-.17,0-.26,0-.26-.14s.11-.14.34-.14c.82,0,1.8,0,2.13,0,.53,0,1.71,0,2.19,0a5,5,0,0,1,2.86.67,2.69,2.69,0,0,1,1.06,2.13c0,1.15-.48,2.2-2,3.48,1.38,1.74,2.45,3.12,3.37,4.08a3.08,3.08,0,0,0,1.74,1.05,2.47,2.47,0,0,0,.43,0c.13,0,.19,0,.19.12s-.11.15-.29.15H240a3.19,3.19,0,0,1-1.66-.29,7.48,7.48,0,0,1-2.13-2.28c-.62-.85-1.33-1.91-1.54-2.14a.32.32,0,0,0-.28-.11l-1.35,0c-.08,0-.12,0-.12.12v.22c0,1.44,0,2.67.08,3.32,0,.45.14.79.61.86a7.2,7.2,0,0,0,.76.06c.12,0,.19,0,.19.13s-.11.15-.31.15c-.9,0-2.05,0-2.28,0s-1.27,0-1.89,0c-.2,0-.31,0-.31-.15s.06-.12.25-.12a2.68,2.68,0,0,0,.56-.06c.31-.06.39-.4.45-.86.08-.65.08-1.88.08-3.3v-2.73Zm1.83,1.23c0,.17,0,.23.14.28a4,4,0,0,0,1.18.15,1.54,1.54,0,0,0,1.1-.27,2.73,2.73,0,0,0,.92-2.33c0-2.2-1.46-2.84-2.38-2.84a3.5,3.5,0,0,0-.82.06c-.11,0-.14.09-.14.22v4.72Z" transform="translate(-217.61 -206)" style="fill:#1d1d1b"/><path id="Path_100" data-name="Path 100" d="M241.15,270.55a6,6,0,0,1,5.85-6.1h.56c3.87,0,6.27,2.25,6.27,5.8a6.14,6.14,0,0,1-5.9,6.37h-.53a5.91,5.91,0,0,1-6.25-5.56q0-.26,0-.53m10.51.29c0-3.48-2-5.64-4.55-5.64-1.79,0-3.82,1-3.82,4.86,0,3.23,1.78,5.79,4.76,5.79,1.09,0,3.6-.53,3.6-5" transform="translate(-217.61 -206)" style="fill:#1d1d1b"/><path id="Path_101" data-name="Path 101" d="M256.26,264.87c0-.26.14-.4.26-.4s.22.08.42.48l4.24,8.63,4.22-8.74c.12-.25.2-.37.34-.37s.23.15.28.48l1.41,9.5c.14,1,.3,1.43.76,1.57a3.14,3.14,0,0,0,1,.15c.14,0,.25,0,.25.11s-.19.17-.4.17c-.39,0-2.53,0-3.15-.08-.36,0-.45-.08-.45-.17s.06-.12.17-.17.14-.23.08-.67l-.93-6.75h-.06l-3.38,6.92c-.36.73-.43.87-.58.87s-.3-.31-.54-.78c-.37-.71-1.6-3.09-1.79-3.52s-1.07-2.16-1.61-3.32h-.06l-.81,6.05a5.87,5.87,0,0,0,0,.73c0,.29.2.43.46.5a3,3,0,0,0,.65.08c.12,0,.23,0,.23.11s-.14.17-.37.17c-.65,0-1.35,0-1.63,0s-1,0-1.54,0c-.15,0-.28,0-.28-.17s.09-.11.25-.11a2,2,0,0,0,.46,0c.43-.09.56-.7.63-1.23l1.54-10Z" transform="translate(-217.61 -206)" style="fill:#1d1d1b"/><path id="Path_102" data-name="Path 102" d="M273.27,272.46c-.08,0-.11,0-.14.12l-.84,2.13a3,3,0,0,0-.23.95c0,.28.14.48.62.48h.23c.19,0,.23,0,.23.12s-.09.15-.26.15c-.5,0-1.16,0-1.65,0-.17,0-1,0-1.83,0-.2,0-.29,0-.29-.15s.06-.12.19-.12l.48,0c.71-.09,1-.62,1.32-1.4l3.9-9.62c.19-.45.28-.62.43-.62s.23.14.39.5c.37.85,2.86,7.06,3.85,9.42.59,1.4,1,1.61,1.36,1.69a3.38,3.38,0,0,0,.65.06c.13,0,.2,0,.2.13s-.14.15-.71.15-1.69,0-2.94,0c-.28,0-.46,0-.46-.12s.06-.12.22-.14a.25.25,0,0,0,.15-.32v0l-1.24-3.2a.15.15,0,0,0-.15-.11h-3.46Zm3.17-.78c.08,0,.09,0,.08-.09l-1.39-3.82c0-.06,0-.14-.08-.14s-.08.08-.09.14l-1.43,3.8c0,.06,0,.11.06.11Z" transform="translate(-217.61 -206)" style="fill:#1d1d1b"/><path id="Path_103" data-name="Path 103" d="M231.53,268.84c0-2.36,0-2.8,0-3.29s-.15-.78-.67-.89a3.22,3.22,0,0,0-.6,0c-.17,0-.26,0-.26-.14s.11-.14.34-.14c.82,0,1.8,0,2.13,0,.53,0,1.71,0,2.19,0a5,5,0,0,1,2.86.67,2.69,2.69,0,0,1,1.05,2.12c0,1.15-.48,2.2-2,3.48,1.38,1.74,2.45,3.12,3.37,4.08a3.1,3.1,0,0,0,1.74,1.05,2.47,2.47,0,0,0,.43,0c.12,0,.19,0,.19.12s-.11.15-.29.15h-1.47a3.18,3.18,0,0,1-1.66-.29,7.47,7.47,0,0,1-2.12-2.28c-.62-.85-1.33-1.91-1.54-2.14a.33.33,0,0,0-.28-.11l-1.35,0c-.08,0-.12,0-.12.13v.22c0,1.44,0,2.67.08,3.32,0,.45.14.79.61.85a7.24,7.24,0,0,0,.76.06c.12,0,.19,0,.19.13s-.11.15-.31.15c-.9,0-2.05,0-2.28,0s-1.27,0-1.89,0c-.2,0-.31,0-.31-.15s.06-.12.25-.12a2.53,2.53,0,0,0,.56-.06c.31-.06.39-.4.45-.85.08-.65.08-1.88.08-3.31v-2.73Zm1.83,1.23c0,.17,0,.23.14.28a4.05,4.05,0,0,0,1.18.15,1.56,1.56,0,0,0,1.1-.27,2.73,2.73,0,0,0,.92-2.33c0-2.2-1.46-2.84-2.38-2.84a3.5,3.5,0,0,0-.82.06c-.11,0-.14.09-.14.22v4.72Z" transform="translate(-217.61 -206)" style="fill:#ffba00"/><path id="Path_104" data-name="Path 104" d="M241.56,270.21a6,6,0,0,1,5.85-6.1H248c3.87,0,6.27,2.25,6.27,5.8a6.14,6.14,0,0,1-5.9,6.37h-.53a5.92,5.92,0,0,1-6.25-5.56q0-.26,0-.53m10.51.29c0-3.48-2-5.64-4.55-5.64-1.79,0-3.82,1-3.82,4.86,0,3.23,1.78,5.79,4.77,5.79,1.08,0,3.6-.53,3.6-5" transform="translate(-217.61 -206)" style="fill:#ffba00"/><path id="Path_105" data-name="Path 105" d="M256.67,264.52c0-.26.14-.4.26-.4s.22.08.42.48l4.24,8.63,4.22-8.74c.12-.25.2-.37.34-.37s.23.15.28.48l1.41,9.5c.14,1,.29,1.43.76,1.57a3.13,3.13,0,0,0,1,.15c.14,0,.25,0,.25.11s-.19.17-.4.17c-.39,0-2.53,0-3.15-.08-.36,0-.45-.08-.45-.17s.06-.12.17-.17.14-.23.08-.67l-.93-6.75h-.06l-3.38,6.92c-.36.73-.43.87-.57.87s-.3-.31-.54-.78c-.37-.71-1.6-3.09-1.79-3.52s-1.07-2.16-1.61-3.32h-.06l-.81,6.06a5.82,5.82,0,0,0,0,.73c0,.29.2.43.46.5a3.06,3.06,0,0,0,.65.08c.12,0,.24,0,.24.11s-.14.17-.37.17c-.65,0-1.35,0-1.63,0s-1,0-1.54,0c-.15,0-.28,0-.28-.17s.09-.11.25-.11a1.91,1.91,0,0,0,.46,0c.43-.09.56-.7.63-1.23l1.54-10Z" transform="translate(-217.61 -206)" style="fill:#ffba00"/><path id="Path_106" data-name="Path 106" d="M273.68,272.11c-.08,0-.11,0-.14.12l-.84,2.13a3.05,3.05,0,0,0-.23.95c0,.28.14.48.62.48h.23c.19,0,.23,0,.23.12s-.09.15-.26.15c-.5,0-1.17,0-1.65,0-.17,0-1,0-1.83,0-.2,0-.3,0-.3-.15s.06-.12.19-.12l.48,0c.71-.09,1-.62,1.32-1.4l3.9-9.62c.19-.45.28-.62.43-.62s.23.14.39.5c.37.85,2.86,7.06,3.85,9.42.59,1.4,1,1.61,1.37,1.69a3.38,3.38,0,0,0,.65.06c.13,0,.2,0,.2.12s-.14.15-.71.15-1.69,0-2.94,0c-.28,0-.46,0-.46-.12s.06-.12.22-.14a.25.25,0,0,0,.15-.32v0l-1.24-3.2a.15.15,0,0,0-.15-.11h-3.46Zm3.17-.78c.08,0,.09,0,.08-.09l-1.4-3.82c0-.06,0-.14-.08-.14s-.08.08-.09.14l-1.43,3.8c0,.06,0,.11.06.11Z" transform="translate(-217.61 -206)" style="fill:#ffba00"/><path id="Path_107" data-name="Path 107" d="M250.47,285.44a1.63,1.63,0,0,0,1.61,1.65h.11a1.54,1.54,0,0,0,1.11-.39.2.2,0,0,0,0-.09.08.08,0,0,0-.07-.08s-.08,0-.17.1a1.31,1.31,0,0,1-.57.1c-.3,0-1.12-.3-1.12-1.61,0-.72.41-1.27,1-1.27s1.28.66,1.28,2.17a4.77,4.77,0,0,1-2.19,3.94s-.1.08-.1.14a.09.09,0,0,0,.08.08.26.26,0,0,0,.15,0c1-.49,3.11-2,3.11-4.38a2.1,2.1,0,0,0-1.87-2.31h-.25a2,2,0,0,0-2.15,1.8q0,.09,0,.18" transform="translate(-217.61 -206)"/><path id="Path_108" data-name="Path 108" d="M245.93,285a.1.1,0,0,0,.07.09l.12,0a6.08,6.08,0,0,1,1-.41c.13,0,.13.1.13.3v2.48c0,.82,0,1.54,0,1.92s-.07.39-.34.45a5.29,5.29,0,0,1-.68.06s-.07,0-.07.09.05.08.14.08l1.44,0c.23,0,.77,0,1.41,0,.09,0,.13,0,.13-.08a.08.08,0,0,0-.07-.09h0a4.81,4.81,0,0,1-.56-.05c-.27-.06-.31-.19-.34-.46s0-1.1,0-1.92v-1.58c0-1.3.05-2.15.05-2.21s0-.18-.1-.18a.5.5,0,0,0-.22.11c-.29.22-1.91,1.29-1.95,1.31a.15.15,0,0,0-.09.12" transform="translate(-217.61 -206)"/><path id="Path_109" data-name="Path 109" d="M255.51,289.87a.12.12,0,0,0,.12.12h3.3c.53,0,.67,0,.73-.26a10,10,0,0,0,.24-1.22c0-.08,0-.16-.07-.16s-.08,0-.1.14a1,1,0,0,1-1,.76c-.31,0-1.31.05-1.45.05h-.57s-.06,0,0-.06c1.09-.88,2.9-2.32,2.9-4,0-1-.63-1.82-2.12-1.82a3.18,3.18,0,0,0-1.53.32c-.09.06-.1.1-.1.17,0,.25,0,1,.05,1s0,.16.08.16.11-.08.11-.16a1.38,1.38,0,0,1,.35-.82,1.19,1.19,0,0,1,.9-.31c.42,0,1.15.27,1.15,1.62,0,1.8-1.68,3.13-2.86,4.17-.08.08-.17.15-.17.22" transform="translate(-217.61 -206)"/><path id="Path_110" data-name="Path 110" d="M260.83,285c0,.08,0,.13.07.13s.08,0,.09-.11a.85.85,0,0,1,.28-.51,1.58,1.58,0,0,1,.79-.15h2.19a30.82,30.82,0,0,0-2.48,5.3,1.23,1.23,0,0,0-.06.35c0,.08,0,.1.12.1.38,0,1.06-.35,1.06-.52a2,2,0,0,1,0-.31,20.42,20.42,0,0,1,2.14-5.48.3.3,0,0,0,.06-.15s0-.07-.2-.07h-2.7a4.9,4.9,0,0,1-1.14-.08c-.05,0-.08,0-.08.12s-.13,1.08-.13,1.4" transform="translate(-217.61 -206)"/><path id="Path_111" data-name="Path 111" d="M250.74,285.2a1.63,1.63,0,0,0,1.62,1.65h.1a1.54,1.54,0,0,0,1.11-.39.2.2,0,0,0,0-.09.08.08,0,0,0-.06-.07s-.08,0-.17.1a1.31,1.31,0,0,1-.57.1c-.3,0-1.12-.31-1.12-1.61,0-.72.41-1.27,1-1.27s1.28.66,1.28,2.17a4.77,4.77,0,0,1-2.19,3.94s-.1.09-.1.15a.09.09,0,0,0,.08.08.26.26,0,0,0,.15,0c1-.49,3.11-2,3.11-4.38a2.1,2.1,0,0,0-1.87-2.31h-.25a2,2,0,0,0-2.15,1.8q0,.09,0,.18" transform="translate(-217.61 -206)" style="fill:#bdbbba"/><path id="Path_112" data-name="Path 112" d="M246.2,284.75a.1.1,0,0,0,.07.09l.12,0a6.07,6.07,0,0,1,1-.41c.13,0,.13.1.13.3v2.47c0,.82,0,1.54,0,1.92s-.07.39-.34.45a5.29,5.29,0,0,1-.68.06s-.07,0-.07.09.05.08.14.08l1.44,0c.23,0,.77,0,1.41,0,.09,0,.13,0,.13-.08a.08.08,0,0,0-.07-.09h0a4.82,4.82,0,0,1-.56-.05c-.27-.06-.31-.19-.34-.46s0-1.1,0-1.92V285.6c0-1.3.05-2.15.05-2.21s0-.18-.1-.18a.5.5,0,0,0-.22.11c-.29.22-1.92,1.29-1.95,1.31a.15.15,0,0,0-.09.12" transform="translate(-217.61 -206)" style="fill:#bdbbba"/><path id="Path_113" data-name="Path 113" d="M255.77,289.62a.12.12,0,0,0,.12.12h3.3c.53,0,.67,0,.73-.26a9.65,9.65,0,0,0,.24-1.22c0-.08,0-.16-.07-.16s-.08,0-.1.14a1,1,0,0,1-1,.76c-.31,0-1.31.05-1.45.05H257s-.06,0,0-.06c1.09-.88,2.9-2.32,2.9-4,0-1-.63-1.82-2.12-1.82a3.17,3.17,0,0,0-1.53.32c-.09.06-.1.09-.1.17,0,.24,0,1,.05,1s0,.16.08.16.11-.08.11-.16a1.39,1.39,0,0,1,.35-.82,1.19,1.19,0,0,1,.9-.31c.42,0,1.15.27,1.15,1.62,0,1.8-1.68,3.13-2.86,4.17-.09.08-.17.15-.17.22" transform="translate(-217.61 -206)" style="fill:#bdbbba"/><path id="Path_114" data-name="Path 114" d="M261.1,284.79c0,.08,0,.13.07.13s.08,0,.09-.11a.85.85,0,0,1,.28-.51,1.58,1.58,0,0,1,.79-.15h2.19a30.76,30.76,0,0,0-2.48,5.3,1.22,1.22,0,0,0-.06.35c0,.08,0,.1.12.1.38,0,1.06-.35,1.06-.52a2,2,0,0,1,0-.31,20.42,20.42,0,0,1,2.14-5.48.3.3,0,0,0,.06-.15s0-.07-.2-.07h-2.7a4.9,4.9,0,0,1-1.14-.08c-.05,0-.08,0-.08.12s-.13,1.08-.13,1.4" transform="translate(-217.61 -206)" style="fill:#bdbbba"/><path id="Path_115" data-name="Path 115" d="M284.53,250c-.19-.24-.41-.5-.63-.77-1-1.21-3.22-4.2-3.22-4.2,0-9.69-1.74-11.5-3.52-13-1.57-1.34-4.08-2-6.78-2.44a16.06,16.06,0,0,0-2.47-.17c-.93,0-1.8,0-2.68.1-.72,0-13.36.57-17.42-.11a22.31,22.31,0,0,0-5.67.22c-.67.08-4.32.66-4.75,0a1.47,1.47,0,0,1,0-.74,2.21,2.21,0,0,0-.14-1.68c-.55-.76-1.14-1.58-1.47-1.58a7.93,7.93,0,0,0-1.23,1,2.3,2.3,0,0,0-.47,1.68c0,.43,0,.35-.05.38s-2.38.06-3,.1a2.4,2.4,0,0,0-.42-1.3,6.29,6.29,0,0,1-.47-1.6s-.84,1.46-1.13,1.85a5.75,5.75,0,0,0-.83,1.39,2.28,2.28,0,0,0-.1.66,1.46,1.46,0,0,1-.1.56,1.76,1.76,0,0,0-.74,1.34,2.55,2.55,0,0,0,.08.64,3.58,3.58,0,0,1,.08.54l-.13.09c-.4.26-.94.61-.91,1.24a3.34,3.34,0,0,0,.57,1.83l.27.47a3.31,3.31,0,0,1,.24,1c.08.49-.38,1-.06,1.34a3.31,3.31,0,0,0,1.94.43l.73,0a2.41,2.41,0,0,1,.44,0,23.13,23.13,0,0,0,2.64.32,16.75,16.75,0,0,1,3.43.52,32.46,32.46,0,0,1,6.27,2.6l.33.17c.79.4,1,.35,1.33,1.44s-.31,9.6-.47,10.47c-.24,1.42-.68,2.28-1.43,2.55a3.32,3.32,0,0,0-1.78,1.88c-.12.24-.1.53-.26.78,0,0-.32.35-.21.44a3.89,3.89,0,0,0,1.11-.15c.34,0,0,.2.32.2a5.38,5.38,0,0,0,2.9-.61c.44,0,.15.56.55.48,1.24-.23,1.36-1.18,1.51-2.09.26-1.54.22-1.81.39-1.95s.72.09.87-.08a21.41,21.41,0,0,0,.05-2.25,21,21,0,0,1,.92-4.52l0-.07c.09-.31.24-.68.39-1.07a9.26,9.26,0,0,0,.84-3.39.86.86,0,0,1,.77.45l.18.29c.49.8.75,1,1.06,1h.1c.53-.14.81-.58,1.11-1.17s.6-1.18,1.09-1.29h.07a2.14,2.14,0,0,1,1.51,1c.89,1.38,1.65.41,1.72.3s.81-1.33,1-1.6.35-.36.39-.36h0c.43.07,2.32,2.33,3,2.18s1.38-2.56,1.78-2.56H264a4.73,4.73,0,0,1,.47.65c.5.76.61,1.26,1,1.26.13,0,.35-.11.48-.44,0-.09.19-.46.21-.5s.35,1.16,1.18.16l0,0v0c.11-.26,1.62,1.23,2.34,1.82s1.21,1.13,1.26,1.17c1.56,1.39,3.49,3.11,3.87,5a8.11,8.11,0,0,1-.14,3.51.9.9,0,0,1-.18.43,1.31,1.31,0,0,1-.45.06h-.33c-.53,0-.89.6-1.21,1.1-.15.24-.34.42-.44.6a.48.48,0,0,0,.15.52,6.31,6.31,0,0,0,1.35.29l.23,0a2.13,2.13,0,0,0,.73.12,2.63,2.63,0,0,0,2.18-.93,21.32,21.32,0,0,0,1.18-3.1c0-.12.07-.24.11-.35s.17-.49.27-.75c.37-1,1-2,.71-2.91a5.35,5.35,0,0,0-1-1.4c-.28-.38-1.34-1.76-1.66-2.24,1,1,3.74,2.38,4.44,4a15.47,15.47,0,0,1-.05,3.68c0,.31,0,.62,0,.94,0,1-.32,1.18-1.32,1.28s-1.27,1.38-1.49,2.07l0,.11-.1.32.34.06.43.08a14.68,14.68,0,0,0,2.43.51,2.43,2.43,0,0,0,1.89-.64,5.27,5.27,0,0,0,.87-2.4c.07-.33.42-1.49.56-1.92.83-2.66,1.65-3.68.25-5.2m-56.1-12.81c-.3.19-.42-.34-.42-.34-.08-.21-.09-.43,0-.52.23.14.51.14.58.27a.55.55,0,0,1-.2.59" transform="translate(-217.61 -206)"/><path id="Path_116" data-name="Path 116" d="M245.15,259s-.06,0-.07,0l-.08-.11s0,0,0-.07l.06,0s.06,0,.07,0l.08.11s0,0,0,.07Z" transform="translate(-217.61 -206)" style="fill:#bdbbba"/><path id="Path_117" data-name="Path 117" d="M268.56,244.35l-.21.06a.49.49,0,0,0,.16,0,.23.23,0,0,1,0-.11" transform="translate(-217.61 -206)" style="fill:#bdbbba"/><path id="Path_118" data-name="Path 118" d="M268,244.38a.61.61,0,0,0-.23-.12h-.14l0,0v0a.15.15,0,0,1,.15-.1l.11,0a.33.33,0,0,1,.19.2l0,.09Z" transform="translate(-217.61 -206)"/><path id="Path_119" data-name="Path 119" d="M267,244.18a.15.15,0,0,1,.15-.1l.11,0,.06,0,0,0-.1.08h0l-.06,0H267l0,0v-.05Z" transform="translate(-217.61 -206)"/><path id="Path_120" data-name="Path 120" d="M267.24,244.13l.06,0-.06,0-.07,0a.29.29,0,0,0-.16,0s0-.12.23-.06" transform="translate(-217.61 -206)"/><path id="Path_121" data-name="Path 121" d="M269.25,258.21c-1.3,0-1.47-2.11-1.5-2.48a1.78,1.78,0,0,1-.88-.42l-.06,0c0,.15,0,.32,0,.47s.06.87.08,1v0a1,1,0,0,1-.46,1.1,1.07,1.07,0,0,1-.53.13,1.91,1.91,0,0,1-.41-.06h-.16l-.48,0h0c-.27,0-1,0-1.17.06h-.08a1.3,1.3,0,0,1-.8-.35.63.63,0,0,1,0-.83l.05-.08.07,0a.84.84,0,0,1,.38-.15L264,256c-.33-.65-1.81-2.91-.52-3.63a8.46,8.46,0,0,1,1.9-.68s0-.09,0-.13a1.17,1.17,0,0,0,0-.37,1.27,1.27,0,0,1-.58.17l-.16,0a2.61,2.61,0,0,1-1.07-.82c-.1-.13-.47-.81-.82-1.45a5.12,5.12,0,0,1-1.09-.09c-.09,0-.2-.06-.81-.57a.71.71,0,0,1-.27-.63.59.59,0,0,1,.32-.44l0,0a.68.68,0,0,1,.43-.26h.14a.71.71,0,0,1,.39.12A.54.54,0,0,1,262,247a.66.66,0,0,1,.62-.35,1.22,1.22,0,0,1,.5.12h0l0,0,.08,0a4.9,4.9,0,0,1,.47.14c.16.07.27.15.56.66l.47.47a2.12,2.12,0,0,1,.56-.8,1.22,1.22,0,0,1,.46-.22l.12,0a1.52,1.52,0,0,1,.24-.17l0-.07-.22-.33a1.22,1.22,0,0,1-.15-.79v-.05c0-.5.65-.92.65-.92l.22-.11c.13-.14.34-.39.49-.52a1.33,1.33,0,0,1,.46-.26.84.84,0,0,1,.84-.41c.14,0,.59,0,.74.05a.85.85,0,0,1,.65.5.75.75,0,0,1,.49.68l.1.1a1,1,0,0,1,.27.52,1.63,1.63,0,0,1,.12.89,1.58,1.58,0,0,1-.29,1l-.05.16a1.91,1.91,0,0,1,.7,1.29c0,.16.24.85.35,1.31a2.44,2.44,0,0,1-.1,1.3l0,.07,0,.06-.35.46a1,1,0,0,1-.52.33c.06.22.11.45.15.66a3,3,0,0,1,.62,1.46,1.39,1.39,0,0,1-.1.46,1.8,1.8,0,0,1,0,.62,3.41,3.41,0,0,1,.48.76l0,.07c.77,1.68-1.16,1.81-1.28,1.77a2.47,2.47,0,0,1-1.2.26" transform="translate(-217.61 -206)"/><path id="Path_122" data-name="Path 122" d="M269.12,244l-.65-.05c-.57,0-.27.29-.27.29a1.53,1.53,0,0,0-.64.23c-.19.17-.54.58-.54.58l-.25.11a.91.91,0,0,0-.4.49.71.71,0,0,0,.07.53,5.27,5.27,0,0,0,.31.46.24.24,0,0,1,0,.21c0,.11-.12.39-.12.39a1.72,1.72,0,0,0-.36.23c-.08.09-.47.15-.56.23a1.71,1.71,0,0,0-.52.89,1.45,1.45,0,0,0-.3.4l-1-1s-.13-.42-.32-.48l-.63-.22c-.38-.14-.45,0-.37.07a1.33,1.33,0,0,0,.37.25c.06,0,.09.44-.88.28,0,0-.3-.17-.46-.23-.41-.14-.34.26-.26.33a5.24,5.24,0,0,0,.6.53c.09,0,1.26.08,1.26.08s.8,1.52.91,1.67a2.42,2.42,0,0,0,.74.61,1.2,1.2,0,0,0,1-.65l.1,2a10.45,10.45,0,0,0-2.17.69c-.69.55.53,2.63.95,3.19.13.18,0,.22,0,.22s-1.28.71-1.3.77a.27.27,0,0,0-.23,0s-.06.09,0,.13a.7.7,0,0,0,.42.19c.16,0,1.07-.07,1.29-.06s.48,0,.62.06.43.13.66,0,.2-.35.17-.57-.09-1.08-.09-1.08,0-1,0-1.12a2.91,2.91,0,0,0,.73.08c.13-.07.26.15.26.15s.43.33.61.3.23-.05.32-.33c.07-.1.12-.08.12.18s-.12,2.68,1,2.63a2.59,2.59,0,0,0,1.22-.37.45.45,0,0,0,.48.18c.72-.26.33-.92.26-1s-.39-.83-.6-.84a3.05,3.05,0,0,0-.09-.89,1.61,1.61,0,0,0,.16-.47,2.57,2.57,0,0,0-.6-1.21,10.9,10.9,0,0,0-.4-1.61,4.39,4.39,0,0,0,.55.17.34.34,0,0,0,.32-.14c.09-.1.33-.43.33-.43a1.91,1.91,0,0,0,.08-1c-.11-.49-.34-1.3-.34-1.3s-.11-.78-.5-1a1.28,1.28,0,0,0-.47-.16s-.12-.17,0-.2a.86.86,0,0,0,.28-.2,1.72,1.72,0,0,0,.11-.32s.23-.11.23-.77a1.06,1.06,0,0,0-.1-.67.47.47,0,0,0-.14-.32l-.25-.27s0-.34-.12-.38l-.27-.08s0-.35-.28-.39" transform="translate(-217.61 -206)" style="fill:#bdbbba"/><path id="Path_123" data-name="Path 123" d="M269.32,245.94s0-.07-.07-.07h0a.24.24,0,0,1-.18.1.26.26,0,0,1-.15-.06.17.17,0,0,0,.15.19h0a.33.33,0,0,0,.25-.14v0Z" transform="translate(-217.61 -206)"/><path id="Path_124" data-name="Path 124" d="M264.31,256.5a1.51,1.51,0,0,0-2-.37l-.06-.05c-.15-.12-.6-.39-.82-.51a2.08,2.08,0,0,0-.56-.48,5.06,5.06,0,0,0-1.26-.47,4.37,4.37,0,0,0-.21-1.29,12.47,12.47,0,0,0,.09-1.42,6.15,6.15,0,0,0,1,.11,1.28,1.28,0,0,0,.42-.06,1.72,1.72,0,0,0,1-.57l0-.07,0-.08a1.76,1.76,0,0,0-.23-1.3,11.48,11.48,0,0,0-1.38-1.55l0-.45a.75.75,0,0,0-.24-.6,8.91,8.91,0,0,0-.69-.7,1.08,1.08,0,0,0-.52-.14l-.18,0c-.48.1-.43.82-.41.89l-.19-.09a1.17,1.17,0,0,0-.64-.33.87.87,0,0,0-.53-.18h0a.55.55,0,0,0-.46.17,1,1,0,0,0-.59.38,1.16,1.16,0,0,0-.42.43,1.45,1.45,0,0,0-.41.62l0,.12a1.53,1.53,0,0,0-.14.93.06.06,0,0,1,0,0,1.26,1.26,0,0,0-.84.63,6.55,6.55,0,0,0-.27.63c-.11,0-1.45.17-1.42.8a.7.7,0,0,0,.28.52.6.6,0,0,0,0,.62.74.74,0,0,0,.38.34,1.4,1.4,0,0,0,.24.47,1.88,1.88,0,0,0,.4.38,2.74,2.74,0,0,0-.77.39,1.16,1.16,0,0,0-.48,1.56l0,.08a12.62,12.62,0,0,0,1.47,1.54s-1,1.73.54,1.8c.34.58,1.51-.25,1.55-.27s1.65,0,1.24-1.19c.1,0,.65-.17.67-.17a2.23,2.23,0,0,0,1.19.27,5.87,5.87,0,0,0,.74,0l.17,0a2.28,2.28,0,0,0,.74.78c.4.23,1.3.63,1.6.76a2.36,2.36,0,0,0,1.11.59c1.33,0,.92-1.21.94-1.28a3.42,3.42,0,0,0-.07-2.18" transform="translate(-217.61 -206)"/><path id="Path_125" data-name="Path 125" d="M259.65,250.1a2.6,2.6,0,0,0-.79-.22,1.15,1.15,0,0,0-.31-.14s.32-.24.31-.41c-.23-1.15-.62-1.24-.62-1.24a.57.57,0,0,0-.45-.3c-.06-.24-.53-.29-.53-.29a.4.4,0,0,0-.31-.15.31.31,0,0,0-.26.15.5.5,0,0,0-.48.29.6.6,0,0,0-.37.39s-.17,0-.32.43a1.48,1.48,0,0,0-.17.75,1.39,1.39,0,0,0,.22.42,1.11,1.11,0,0,1-.33.18c-.17.05-.6.09-.76.43a9.18,9.18,0,0,0-.39,1,.62.62,0,0,0-.23-.08,2,2,0,0,0-.73.09c-.06,0-.28.07-.28.16,0,.24.4.15.4.15l-.09.53s-.16.16-.12.23a.15.15,0,0,0,.17.09c.07,0,.18-.14.18-.14a1.53,1.53,0,0,0,.22.8,1.38,1.38,0,0,0,.48.4.51.51,0,0,0,.32,0,1.18,1.18,0,0,0,.46-.37c0-.09.1-.37.1-.37s.12-.46.17-.46.11.06.11.06v.93a4.17,4.17,0,0,0-.37.88,3,3,0,0,0-1.76.46c-.6.41-.39.78-.28,1s1.92,1.94,2,2,0,.14-.06.14h-.19s-.28-.1-.33,0c-.11.27.18.24.19.29s-.23,0-.27.1a.52.52,0,0,0,.12.47c.08.1.26.05.32.07s.08.11.22.14c.32.12,1-.45,1.11-.44a.57.57,0,0,0,.75-.3v0a.64.64,0,0,0-.07-.44,2.11,2.11,0,0,0-.29-.38l.33-.11s0,0,.13,0a2.24,2.24,0,0,0,.61.11c.12,0,.57-.22.64-.18a3.27,3.27,0,0,0,.68.24,6.09,6.09,0,0,0,1,0c.18,0,.53-.14.53-.14a2.34,2.34,0,0,0,.74.94c.45.25,1.65.78,1.65.78s.48.5.8.5a.37.37,0,0,0,.4-.34,2,2,0,0,1,.05-.59,5.86,5.86,0,0,0,.14-1c0-.25.1-1-.58-1.07l-.39-.06c-.1,0,0,.24-.08.15a.18.18,0,0,0-.2-.12.26.26,0,0,0-.18.22c0,.11.05.39.05.39l-.71-.56c-.15-.12-.82-.51-.82-.51a3.53,3.53,0,0,0-.47-.43,3.86,3.86,0,0,0-1.51-.49,5.05,5.05,0,0,0-.25-1.73,11.32,11.32,0,0,0,.06-1.72c0-.14.19-.26.3-.26a5.27,5.27,0,0,0,1.49.12s.57-.14.7-.35a1.3,1.3,0,0,0-.16-.9,12.27,12.27,0,0,0-1.49-1.62c0-.24.06-.69.06-.69a.25.25,0,0,0-.07-.16c-.07-.07-.51-.57-.57-.62a.55.55,0,0,0-.33-.09c-.08,0-.05.2,0,.24l.18.16.07.19s-.09,0-.11.09a.67.67,0,0,0,0,.31.29.29,0,0,0,.14.07s-.1.21-.2.22-.22-.48-.34-.36a.27.27,0,0,0-.06.26,3,3,0,0,0,.27.63l.14.13a10,10,0,0,1,.64,1.12" transform="translate(-217.61 -206)" style="fill:#bdbbba"/><path id="Path_126" data-name="Path 126" d="M266.89,244.35a.51.51,0,0,1-.51-.46c0-.07-.19-.46-.34-.81-.83-1.95-.77-1.24-.69-1.55.14-.56.91-.62,1.48-.62h.27a1,1,0,0,1,.7.29,1.42,1.42,0,0,1,.39,1,14.57,14.57,0,0,1-.63,1.66v0c-.3.49-.57.5-.66.5" transform="translate(-217.61 -206)"/><path id="Path_127" data-name="Path 127" d="M234.1,234.7c-.42-.49-.72-1.31-.45-1.45s.53.06.7.15.37,0,.35-.28,0-.5-.07-.73a3.67,3.67,0,0,0-.74-1.78,2.41,2.41,0,0,0-2.7-.53,1.87,1.87,0,0,0-.59.77c-.06.12.11.28.06.4a7.35,7.35,0,0,1-1.35,2.22,11.1,11.1,0,0,1,4.6,2.18c.24.17-.22,1.14-.38,1.09s.28-.81,0-1a14.32,14.32,0,0,0-2.91-1.12c-.23-.08-.87.33-1,.18a3.65,3.65,0,0,0-1-.69s.11.08.15.38c.09.77-1.34,0-.13,1.23.34.34.66.6.92.49s.21,0,.25.14l.21.49c0,.1.08.09.1,0l.1-.51a.22.22,0,0,1,.22-.17s1.83,0,2.2.08.4.17.4.17a.43.43,0,0,1-.14.56c-.23.18-.77-.2-1.21.15a3.58,3.58,0,0,1-1.3.51.25.25,0,0,1-.25-.13l-.22-.5c0-.1-.08-.09-.09,0l-.05.65c0,.1,0,.18-.06.18s-.08-.07-.12-.16l0,0a.11.11,0,0,0-.2,0l-.12.13a.12.12,0,0,1-.17,0l0,0,0-.07a.1.1,0,0,0-.19,0l-.07.12c-.05.09-.12.08-.15,0l0-.08c0-.09-.09-.1-.13,0s-.07.08-.1,0l-.13.12c-.05.05-.18.17-.19.27s.13.16.76.29,3.57-1.07,4.5-.87,1.48-.66,1.56-1.8c0,0,0-.09,0-.18a9,9,0,0,0-.67-.87" transform="translate(-217.61 -206)" style="fill:#bdbbba"/><path id="Path_128" data-name="Path 128" d="M280.44,257.72c-.1.18-.44.22-.56.26s-.48.25-.46.42a7.93,7.93,0,0,0,0,.95c0,.09.38.2.45.09s0-.64.06-1c0-.06.05-.29.16-.35s.43-.18.35-.35" transform="translate(-217.61 -206)" style="fill:#bdbbba"/><path id="Path_129" data-name="Path 129" d="M252.18,243.55c.3,0,.72-.11.86,0a1.07,1.07,0,0,1,.34.7,8.44,8.44,0,0,1-.8,1.47c-.05.05-.12.23-.26,0a14.12,14.12,0,0,1-.37-2s0-.18.23-.21" transform="translate(-217.61 -206)" style="fill:#bdbbba"/><path id="Path_130" data-name="Path 130" d="M284.21,250.62c-.4-.59-1.42-1.63-1.82-2.12-.54-.67-3-3.57-3-3.57s-.71-4.38-1-5.38c-.19-.64-.73-5.26-4.31-7.77.2-.32,2.52,1.5,3.35,2.91,1.52,2.56,2.17,9.27,2.17,9.27s1-10.24-4.45-12.4c-3.88-1.62-5.82-1.36-5.82-1.36a3.4,3.4,0,0,0-1.07,4.69h0c.32.6,3.85,6,4.08,6.45,2,3.77,8.42,8.17,9.58,9.37.06.06,1.17.79,1.24,1.58,0,.15-1.5-.86-1.48-.68a45.55,45.55,0,0,1,0,5.94c0,.48-.06.55-.35.65s-.59-.17-.77.32-.12,1,.38,1,1.28.27,1.77-1.6,1.56-5.23,1.88-6.46c.08-.3-.16-.62-.3-.81" transform="translate(-217.61 -206)" style="fill:#bdbbba"/><path id="Path_131" data-name="Path 131" d="M230.08,227.48a9.23,9.23,0,0,1,.42,1.6c0,.36-.11.38-.11.38l-1.26.55a2.58,2.58,0,0,0,.42-.72,8.65,8.65,0,0,0,.54-1.82" transform="translate(-217.61 -206)" style="fill:#bdbbba"/><path id="Path_132" data-name="Path 132" d="M274.32,257a.23.23,0,0,0-.24.07,2.5,2.5,0,0,0-.17.77.36.36,0,0,0,.42.08c.27-.1.82-.52.64-.65a2.94,2.94,0,0,0-.64-.27" transform="translate(-217.61 -206)" style="fill:#bdbbba"/><path id="Path_133" data-name="Path 133" d="M273.83,256.7a.55.55,0,0,0-.35.12,1.4,1.4,0,0,0-.32.64c0,.14.23.38.33.24s.61-1,.34-1" transform="translate(-217.61 -206)" style="fill:#bdbbba"/><path id="Path_134" data-name="Path 134" d="M227.5,233.92c-.28.45.53.84.74.6a.5.5,0,0,0-.74-.6" transform="translate(-217.61 -206)" style="fill:#bdbbba"/><path id="Path_135" data-name="Path 135" d="M242,258.43s-.47.94-.48,1,0,.16.06.16a.53.53,0,0,0,.35,0,8.43,8.43,0,0,0,.62-1.15.4.4,0,0,0-.55,0" transform="translate(-217.61 -206)" style="fill:#bdbbba"/><path id="Path_136" data-name="Path 136" d="M278.58,251.49c.24-.84-.55-.93-.82.16-.09.37-1.17,4.3-1.29,5.34,0,.05,0,.1.08,0,0,.36,1.92-5.15,2-5.53" transform="translate(-217.61 -206)" style="fill:#bdbbba"/><path id="Path_137" data-name="Path 137" d="M243.56,230.11a22.56,22.56,0,0,1-6,.32c-1.15-.16-1.2-.86-1-1.49-1.06,1.05-1.62.64-1.65.51s.39,0,.67-.28a2,2,0,0,0,.22-1.74c-.22-.48,0-.39,0-.39a1.09,1.09,0,0,1,.84.77c.17-.71-.8-1.59-1.12-1.38a1.66,1.66,0,0,0-.87,1.49c.11.95,0,1.42-.26,1.4-2.07-.09-4.4-.37-5.69,1a5.49,5.49,0,0,1,2.77-.92c1.2.11,3.66.36,3.81,3.25a13.23,13.23,0,0,0,0,1.4c0,.4-.35.15-.35.32,0,.8.59.67.54,1.37-.2,2.84-1.51,2.78-1.51,2.78s1.58.22,2.36-2.43c0,1.52-.16,1.9-.78,2.5a2.62,2.62,0,0,0,2.18-1.23,3.21,3.21,0,0,0,1.42,1.6,3.75,3.75,0,0,1-.24-2.42c.27,1.77.72,2.43,1.63,2.82a2.87,2.87,0,0,1-.89-2.62,4.49,4.49,0,0,0,1.61,2.33,5,5,0,0,1-.58-2c.61,1.32,1.28,1.43,1.28,1.43a5,5,0,0,1-1.2-2.47s.72.95,1.32.95a4.44,4.44,0,0,1-1.27-2.34c.46.6.79,1,1.33,1a4.56,4.56,0,0,1-1-2.33c.51.64.42.85,1.39,1.11a2.2,2.2,0,0,1-.45-1.84,2.2,2.2,0,0,0,1.57.78,2.4,2.4,0,0,1-.58-1.48,3.39,3.39,0,0,0,1.68.34,1.52,1.52,0,0,1-.39-1.19,4.34,4.34,0,0,0,1.52,0c-.36-.24-.68-.57-.6-.54.27.1.72-.13,1.3-.23a4.36,4.36,0,0,1,1.11-.1,10.44,10.44,0,0,0-4.23,0" transform="translate(-217.61 -206)" style="fill:#bdbbba"/><path id="Path_138" data-name="Path 138" d="M262.7,242s-1.22-.08-1.32.3a10.85,10.85,0,0,0,.65,2.59c.15.37.56-.49.56-.49a10.68,10.68,0,0,0,.63-1.56c0-.2,0-.84-.53-.83" transform="translate(-217.61 -206)" style="fill:#bdbbba"/><path id="Path_139" data-name="Path 139" d="M257.94,242.15s-1.21-.07-1.31.29a9.64,9.64,0,0,0,.51,2.35c.12.36.38-.18.38-.18.13-.24,1.1-1.47,1.1-1.63s-.13-.84-.68-.83" transform="translate(-217.61 -206)" style="fill:#bdbbba"/><path id="Path_140" data-name="Path 140" d="M266.47,230.15c-.38,0-3.55.38-5.67.39-1.68,0-3.47-.08-4.42,0a1.16,1.16,0,0,0-.3,0h0c-1.42-.06-5.95-.13-5.95-.13a7.08,7.08,0,0,0-5.6,6.24c-.41,3.15-.21,4.16.5,5.65a9.93,9.93,0,0,1,1.25,3.82c0,.54-1-2.25-1-1.93a86.81,86.81,0,0,1-.75,12.07c-.38,1.84-.75.91-1.19,1.68-.07.12-1,1.84-1,1.86s.48-.05,1-.1,1-1.54,1.4-1.54c.06,0-.42,1.23-.35,1.2.4-.1,1-.26,1,.05a.31.31,0,0,0,.35-.13c.12-.14.64-2.5,1-3.72.08-.21.6-.09.74,0,.29-.58-.17-2.5.65-5.18s1.68-4.91,1.29-5.6c0-.07-1.44,1.77-1.46,1.7s4.54-8,3.64-12c0-.14-.08-.31-.08-.42s.53.2,1.2.37c.87.27,1.63.41,1.89,1.41.31,1.94,1.21,4.68,3,4.85-.82-.76-1.89-4.62-1.76-6.21.51,2.59,2.09,6.34,3.39,6.17a11.38,11.38,0,0,1-1.35-4.26c.47,1.23,1.59,3.93,2.43,3.95,2.21,0,2.78-1,4.41-1.33,3.66-.83,4.62.57,5.18.86a34.44,34.44,0,0,1-3-5.18c-.8-1.65.56-3.3,2.88-4.32.46-.2-2.62-.17-3.34-.15" transform="translate(-217.61 -206)" style="fill:#bdbbba"/><path id="Path_141" data-name="Path 141" d="M267.09,241.33s-1.22-.08-1.31.29.77,1.79,1,2.19.38-.18.38-.18a9.07,9.07,0,0,0,.57-1.46c0-.2-.13-.84-.68-.84" transform="translate(-217.61 -206)" style="fill:#bdbbba"/><path id="Path_142" data-name="Path 142" d="M255.38,240.31c-.57-.2-1.28-1.39-1.49-1.9a5.1,5.1,0,0,1-.37-2.57,14.76,14.76,0,0,0,.7,2.24,20.55,20.55,0,0,0,1.16,2.24" transform="translate(-217.61 -206)" style="fill:#bdbbba"/><path id="Path_143" data-name="Path 143" d="M267.76,255.68a1.54,1.54,0,0,0-.9-.47c-.22,0-.27,0-.29.18a1.92,1.92,0,0,0,0,.57c.06.33.09.24.39.25a6.13,6.13,0,0,0,.65,0c.21,0,.25,0,.25-.22s.05-.32-.12-.38" transform="translate(-217.61 -206)"/><path id="Path_144" data-name="Path 144" d="M231.2,231.26s.37-.64.82-.77.68.1,1.2.44.8.89,1.3.75c.18-.05-.39.59-.89.41-.12,0-.87-1.29-1.6-1.27a1.86,1.86,0,0,0-.84.44" transform="translate(-217.61 -206)"/><path id="Path_145" data-name="Path 145" d="M232.54,230.67a.94.94,0,0,0-1,.24c.16-.41.89-.16,1.2,0a2.24,2.24,0,0,1,.59.8,1.34,1.34,0,0,0-.7-.42c-.46,0-.51.57-.51.57l-.24.29s0,.07.39.07a6.16,6.16,0,0,0,1.76-.17c.16-.15-.87-1.18-1.54-1.37m.13,1.32a.26.26,0,0,1,0-.5.28.28,0,0,1,.25.26.27.27,0,0,1-.25.25" transform="translate(-217.61 -206)"/><path id="Path_146" data-name="Path 146" d="M238.95,234.36s.21.7.43.84.8-.73.8-.73a4.28,4.28,0,0,1-.75,1.3c-.29-.21-.4-.48-.47-1.41" transform="translate(-217.61 -206)"/><path id="Path_147" data-name="Path 147" d="M239.79,235.14a3,3,0,0,0,.56.83c.22.13.73-.69.73-.69a6.33,6.33,0,0,1-.69,1.27,1.44,1.44,0,0,1-.6-1.41" transform="translate(-217.61 -206)"/><path id="Path_148" data-name="Path 148" d="M237.85,236.32s.41.75.65.84c.42.17.44-.92.44-.92s.17,1.21-.28,1.61c-.38-.22-.58-.37-.81-1.53" transform="translate(-217.61 -206)"/><path id="Path_149" data-name="Path 149" d="M238.89,235.88a2.49,2.49,0,0,0,.42.82c.21.16.64-1,.64-1a6.23,6.23,0,0,1-.47,1.74,2.12,2.12,0,0,1-.6-1.54" transform="translate(-217.61 -206)"/><path id="Path_150" data-name="Path 150" d="M239.73,236.42a2.28,2.28,0,0,0,.64.73c.25.11.41-.9.41-.9s.07,1.15-.23,1.48a1.6,1.6,0,0,1-.82-1.32" transform="translate(-217.61 -206)"/><path id="Path_151" data-name="Path 151" d="M240,233.63s.39.88.64,1,.64-.81.64-.81-.19,1-.66,1.35c-.31-.28-.41-.46-.63-1.55" transform="translate(-217.61 -206)"/><path id="Path_152" data-name="Path 152" d="M239.3,232.87s.24.66.46.78.6-.78.6-.78a4.11,4.11,0,0,1-.58,1.49c-.24-.19-.35-.51-.49-1.49" transform="translate(-217.61 -206)"/><path id="Path_153" data-name="Path 153" d="M240.64,232.64a2,2,0,0,0,.39.7c.19.12.48-.38.48-.38s-.12.79-.47.9c-.14-.13-.3-.39-.41-1.21" transform="translate(-217.61 -206)"/><path id="Path_154" data-name="Path 154" d="M241.68,232s.11.53.27.65.44-.38.44-.38a1.21,1.21,0,0,1-.46.86,1.26,1.26,0,0,1-.26-1.13" transform="translate(-217.61 -206)"/><path id="Path_155" data-name="Path 155" d="M242.64,231.19s.11.53.27.65.44-.38.44-.38-.05.73-.45.81a1.74,1.74,0,0,1-.26-1.08" transform="translate(-217.61 -206)"/><path id="Path_156" data-name="Path 156" d="M238.07,235s.35.63.52.65.48-.65.48-.65-.15.89-.48,1.07a1.89,1.89,0,0,1-.52-1.07" transform="translate(-217.61 -206)"/><path id="Path_157" data-name="Path 157" d="M240.17,232.06s.15.52.31.63.42-.4.42-.4-.08.75-.37,1a1.33,1.33,0,0,1-.36-1.19" transform="translate(-217.61 -206)"/><path id="Path_158" data-name="Path 158" d="M248.71,230.8s2.07-.79,2.57,2.54c.22-1.22-.05-2.67-.9-3.1s-1.67.56-1.67.56" transform="translate(-217.61 -206)"/><path id="Path_159" data-name="Path 159" d="M232.52,229.25a4.51,4.51,0,0,1,4,4A4.72,4.72,0,0,0,235,229.7c-.11-.07-.53-.27-.22-1a3.73,3.73,0,0,0-2.22.5" transform="translate(-217.61 -206)"/><path id="Path_160" data-name="Path 160" d="M270.67,255.45a5,5,0,0,1-.35,2h.18a3.44,3.44,0,0,0,.25-.75,8.63,8.63,0,0,0,0-1.08l-.12-.13Z" transform="translate(-217.61 -206)"/><path id="Path_161" data-name="Path 161" d="M268.66,244.6a.46.46,0,0,1,0,.21s0,.16.17.27a.7.7,0,0,1,.27.26l0,.05a.17.17,0,0,1,0,.18.2.2,0,0,1-.05.1.09.09,0,0,0,0,.09h0a.31.31,0,0,0,.16.2s.07.09,0,.25l0,.05c-.07.18,0,.63.1.6s.08-.41.12-.46a.74.74,0,0,0,.08-.44.14.14,0,0,0,0-.1c-.1-.06-.13-.11-.13-.12l0,0,.06-.1a.38.38,0,0,0,0-.29,1,1,0,0,0-.34-.36c-.1,0-.15-.08-.15-.13s0-.07,0-.1a.33.33,0,0,0,0-.22.93.93,0,0,0-.81-.4l-.21.23s.38-.19.78.27" transform="translate(-217.61 -206)"/><path id="Path_162" data-name="Path 162" d="M267,245.22c.13,0,.22.2.22.24s0,0-.09,0-.12-.14-.25-.13-.13.1-.18.1.16-.23.29-.24" transform="translate(-217.61 -206)"/><path id="Path_163" data-name="Path 163" d="M268,244.88a.3.3,0,0,1,.17.19.67.67,0,0,0-.24-.13.26.26,0,0,0-.16,0s0-.13.23-.06" transform="translate(-217.61 -206)"/><path id="Path_164" data-name="Path 164" d="M269.93,252.16l-.11-.55-.06-.19-1-1.84,0-.07-.14-.14a0,0,0,0,1,0-.05,3.3,3.3,0,0,0,1.09-.17,8.7,8.7,0,0,0,1.07,1.12,11.06,11.06,0,0,0-1-1.42,4.46,4.46,0,0,0,.08-.63.73.73,0,0,0-.43-.34h0l0-.08,0,0-.17-.29.4.13h.11l.11-.15-.8-.27c-.07,0-.15-.18-.16-.3s.56-.64.45-.68-.73.48-.74.64a.7.7,0,0,0,.14.44.25.25,0,0,0-.06.15c-1,.07-1.36.43-1.4.61a8.48,8.48,0,0,1,1.08-.36c-.19.17.11.51.11.51a.21.21,0,0,0-.23,0c-.19.14,0,.45,0,.52a.26.26,0,0,0-.16,0c-.1.11.09.35.23.5s-.23,0-1.07-.58c0,.61,1,1,1.36,1,0,0,1.31,2.39,1.35,2.47m-1.68-3.27c.06-.07.22.09.27,0s-.34-.48-.22-.56.31.24.39.18,0-.1,0-.15a3.52,3.52,0,0,0-.17-.32s-.19-.29-.07-.35.24.16.27.19.23.41.33.36-.17-.65-.17-.65-.13-.21-.07-.25.11,0,.27.17a4.87,4.87,0,0,0,.48.74.59.59,0,0,0-.05-.27c.08.07.24.11.23.22a1.28,1.28,0,0,1-.08.44,2.27,2.27,0,0,1-1.29.46s-.19-.19-.12-.27" transform="translate(-217.61 -206)"/><path id="Path_165" data-name="Path 165" d="M265.89,252.07l-.13.08-.21.13a8.45,8.45,0,0,0,1.71,2.74l0-.08a7.86,7.86,0,0,1-1.39-2.87" transform="translate(-217.61 -206)"/><path id="Path_166" data-name="Path 166" d="M269,253.1c-.51.08-.86,1.75-.86,1.75.12-.16.13.11.13.11s.41-1.42.76-1.56a2.15,2.15,0,0,1,.89-.09,1.36,1.36,0,0,0-.91-.21" transform="translate(-217.61 -206)"/><path id="Path_167" data-name="Path 167" d="M265.11,250.47a15,15,0,0,0-.14-1.62l-.07.08-.12-.08a5.63,5.63,0,0,0,.34,1.62" transform="translate(-217.61 -206)"/><path id="Path_168" data-name="Path 168" d="M265.48,249.2l.12,1.3.22-.13-.06-1s.11.05.14,0-.18-.23-.19-.47.19-.4.15-.42-.1,0-.1,0c0-.16,0-.33,0-.44a1.66,1.66,0,0,1,.22-.47.91.91,0,0,0-.54.69l0,.41a.89.89,0,0,0,0,.21.42.42,0,0,0,.06.2" transform="translate(-217.61 -206)"/><path id="Path_169" data-name="Path 169" d="M264.93,253.29c-.06.33,1.3,1.6,1.3,1.6l.38-.18a13.22,13.22,0,0,1-1.68-1.42" transform="translate(-217.61 -206)"/><path id="Path_170" data-name="Path 170" d="M266.05,247.57a4,4,0,0,1,1,.46c.08-.14-.52-.48-.81-.58s-.18,0-.19.06a.07.07,0,0,0,0,.07" transform="translate(-217.61 -206)"/><path id="Path_171" data-name="Path 171" d="M253.73,251.82c.15,0,.41-.32.36-.34s-.17.18-.4.18l-.26,0h0s-.24.08-.24.08l0,.12.2,0a.69.69,0,0,0,.33,0" transform="translate(-217.61 -206)"/><path id="Path_172" data-name="Path 172" d="M258.29,248.29c.16-.17-.15-.37-.16-.39s.23.29,0,.21c-.15-.24-.75-.42-.78-.45s.08-.14.41.11c0,0-.18-.24-.46-.22a.14.14,0,0,0-.06-.1h0s.07.1,0,.1-.09-.09-.1-.11-.17,0-.09.09l.09.05s0,0,0,0l-.16,0a.49.49,0,0,0-.18,0s0,0,0,0a.26.26,0,0,1,.09,0c.11-.08-.08-.22-.11,0a.13.13,0,0,1-.06.07c-.09,0,0-.13,0-.13h0a.18.18,0,0,0-.07.09s-.36,0-.41.2c.25-.18.38-.17.36-.1s-.3.2-.42.31-.24.24-.26.25-.06-.09,0-.21c-.16.15-.13.27-.09.34a.72.72,0,0,0,0,.61,2.35,2.35,0,0,0,.67.59s-.56-.57-.61-.8c-.1-.55.65-1,.89-1.06a.21.21,0,0,0,.18.06c.17,0,.19-.06.19-.06.19,0,1.09.31,1,1,0,.21-.12.46-.08.49s.08-.09.17-.27a.73.73,0,0,0,0-.62" transform="translate(-217.61 -206)"/><path id="Path_173" data-name="Path 173" d="M253.85,254.67c.87-.09,2.45,2.6,2.51,2.66s.15-.07.15-.07-1.45-3-2.66-2.59" transform="translate(-217.61 -206)"/><path id="Path_174" data-name="Path 174" d="M255,250.2a11.25,11.25,0,0,0,0,2.49l.19-.24c0-.14,0-.86,0-1a1.65,1.65,0,0,0,1.09-.45,3.93,3.93,0,0,1-.74.07c-.26,0-.33-.15-.35-.24s-.1-.67-.18-.66" transform="translate(-217.61 -206)"/><path id="Path_175" data-name="Path 175" d="M254.93,254.09l-.17.11c1.2.64,1.92,3,1.93,3v0l.39.13s-.91-2.71-2.16-3.27" transform="translate(-217.61 -206)"/><path id="Path_176" data-name="Path 176" d="M257.75,257.22c.05.08.33-.06.33-.06v0a2.86,2.86,0,0,1,.87-2s-1,.2-1.2,2.09" transform="translate(-217.61 -206)"/><path id="Path_177" data-name="Path 177" d="M262.65,257l-.22-.15a4.6,4.6,0,0,1,.1.73.06.06,0,0,1,0,.06v0c-.09.1,0,.45,0,.45a1.54,1.54,0,0,1,.2-.31l0,0c.05,0,.06-.08,0-.28s-.06-.47-.06-.47" transform="translate(-217.61 -206)"/><path id="Path_178" data-name="Path 178" d="M259.08,250.18a2.48,2.48,0,0,0-.12.67.36.36,0,0,1-.37.35h-.08a2.7,2.7,0,0,1-.61-.15c.15.3.87.45,1.05.7a1.71,1.71,0,0,1,.07.36h.14v-.49l.14,0c-.06-1-.18-1.39-.22-1.38" transform="translate(-217.61 -206)"/><path id="Path_179" data-name="Path 179" d="M256.16,249.73a5.73,5.73,0,0,0-.65,0l-.43.09.13.09a6.12,6.12,0,0,1,.95-.12h.15c.32.08.71.21.72.16a1.9,1.9,0,0,0-.68-.28h-.18" transform="translate(-217.61 -206)"/><path id="Path_180" data-name="Path 180" d="M259,249.89l0,0v0l0,0-.17-.1H258a1.94,1.94,0,0,0-.81.31s.51-.15.83-.19a4.22,4.22,0,0,1,1,.07" transform="translate(-217.61 -206)"/><path id="Path_181" data-name="Path 181" d="M260.66,251.3c-.12-.13-1.09-1.29-1.09-1.3a.08.08,0,0,0-.07-.05s-.13,0-.14,0a5.22,5.22,0,0,0,1,1.13c.15.13.26.21.31.17" transform="translate(-217.61 -206)"/><path id="Path_182" data-name="Path 182" d="M254.68,257.61l.13.19a.94.94,0,0,1,.32-.41,2.34,2.34,0,0,1,.71-.28,1,1,0,0,0-1.17.49" transform="translate(-217.61 -206)"/><path id="Path_183" data-name="Path 183" d="M254.39,252.88c.11,0,.14-.1.14-.22l0,0a.67.67,0,0,0,.17-.31c.05.28.19.84.09,1l-.16.17.17-.1A.3.3,0,0,0,255,253l-.19-1v0a.57.57,0,0,0-.1-.31.58.58,0,0,0-.4-.23s.46.31.4.63-.11.34-.11.34l-.07-.07v.18c0,.09,0,.13-.1.12s-.31.24-.5.18-.27-.2-.38-.29.05-.23.05-.23a.13.13,0,0,0-.05-.09s-.12.16-.12.16-.11.27,0,.37.18.17.46.26.26-.16.5-.16" transform="translate(-217.61 -206)"/></g></svg>