<svg id="Layer_1" data-name="Layer 1" xmlns="http://www.w3.org/2000/svg" viewBox="0 0 275.99 302.46"><title>US Sassuolo Calcio logo - Brandlogos.net</title><path d="M431.69,235.67l2.49-2.9c4.11,5.92,9,15.57,15.18,19.2,5.64,3.31,16.75,6.63,40.39,6.69h3.69L508,278.06c-8.89,15.32-17.2,35.24-17.2,53.42a71,71,0,0,0,3.33,19.79l15.16,4.22-3.43,7L517,367.49,511.36,375,522,383.1l-10.76,8.12c4.07,10.73,9.29,27.55,9.29,41.32,0,48.09-39,65.31-113.35,77.9l5.26,18.24-19.8-8.55-13.86,15.1-6-15.46-23.5,7.07,6.32-17.32c-70.83-12.5-108.1-30-108.1-77,0-13.77,5.22-30.58,9.29-41.32L246,383.1,256.63,375,251,367.49l11.18-5.05-3.42-7,15.16-4.22a70.93,70.93,0,0,0,3.33-19.79c0-18.19-8.33-38.1-17.2-53.42l14.54-19.41h3.69c12.75,0,37.55-.38,46-11.65,3.42-4.56,6.32-9.55,9.58-14.24,14.17,16.48,26,27.53,49.18,27.87l2-.06c20.87-.23,33.36-9.35,46.74-24.9" transform="translate(-246 -232.77)" style="fill:#b2b2b2"/><path d="M385,268.75c19.88-.23,36-8.62,48.52-23.13,5.43,7.84,8,21.09,56.18,21.2l9.43,12.57s-15.78,27.18-15.78,52.92c0,6.42,1.29,15,4.87,25.79L498.74,361l-2.86,5.82,9.76,4.4-4.55,6.09,8.71,6.6-7.49,5.65c4.06,9.67,10.83,29.07,10.83,43.8,0,42.85-34.29,59.05-115.36,72L401,516.59l-10.29-4.44-9.4,10.24-4.21-10.78-15.94,4.8,4.31-11.81c-77.68-12.82-110.65-29.21-110.65-71.23,0-14.73,6.77-34.13,10.83-43.8l-7.49-5.65,8.71-6.6-4.56-6.09,9.76-4.4L269.24,361l10.48-2.91c3.59-10.75,4.86-19.36,4.86-25.79,0-25.74-15.77-52.92-15.77-52.92l9.43-12.58c48.19-.11,50.75-13.36,56.18-21.2,12.47,14.51,28.64,22.9,48.52,23.19l2.09-.05" transform="translate(-246 -232.77)" style="fill:#1e1e1c"/><polyline points="146.75 240.73 155.65 236.66 155.37 214 146.92 209.23 127.66 221.2 128.29 229.54" style="fill:#fff"/><path d="M356.53,445l.72-22.54-4.77-2.66a40.18,40.18,0,0,0-9.4,25.86l.08,2.54,9.61,1.13" transform="translate(-246 -232.77)" style="fill:#fff"/><polyline points="127.12 185.06 117.18 188.95 116.48 210.63 124.44 216.3 143.17 204.64 142.44 193.45" style="fill:#fff"/><path d="M356.8,476l2.33-9-7.63-11.84-7.51-.87A40.3,40.3,0,0,0,356.8,476" transform="translate(-246 -232.77)" style="fill:#fff"/><path d="M424.41,445.68a40.46,40.46,0,0,0-.24-4.41l-8.8-1.06-8.11,6.14.29,23,6.66,3.09a40.16,40.16,0,0,0,10.21-26.8" transform="translate(-246 -232.77)" style="fill:#fff"/><path d="M405.13,411.25a40.7,40.7,0,0,0-21.39-6c-1.08,0-2.17,0-3.23.13l-2.61,8.39,15,8.22h10.4" transform="translate(-246 -232.77)" style="fill:#fff"/><path d="M423.06,435.26a40.41,40.41,0,0,0-12.61-20.1l-1.57,9.19,6.66,10" transform="translate(-246 -232.77)" style="fill:#fff"/><path d="M389.67,485.7l.37-7-19-11.54-6.17,1.19-2.91,11.44a40.65,40.65,0,0,0,21.8,6.3,41.64,41.64,0,0,0,5.94-.42" transform="translate(-246 -232.77)" style="fill:#fff"/><path d="M321.86,303.79a2.46,2.46,0,1,0-2.47-2.45,2.46,2.46,0,0,0,2.47,2.45" transform="translate(-246 -232.77)" style="fill:#fff"/><path d="M316.46,288a2.46,2.46,0,0,0-.21,4.92,5,5,0,0,1,2.6-3.08,2.46,2.46,0,0,0-2.39-1.84" transform="translate(-246 -232.77)" style="fill:#fff"/><path d="M364,304.75a2.47,2.47,0,1,0,2.47-2.45,2.45,2.45,0,0,0-2.47,2.45" transform="translate(-246 -232.77)" style="fill:#fff"/><path d="M311.33,340.35h15.51c-.11-5.43-1.34-18.25-8-18.25-6.48,0-7.39,11.16-7.5,18.25" transform="translate(-246 -232.77)" style="fill:#fff"/><path d="M365.19,293.41a2.46,2.46,0,1,0,2.47,2.47,2.47,2.47,0,0,0-2.47-2.47" transform="translate(-246 -232.77)" style="fill:#fff"/><path d="M311.84,294.58a2.47,2.47,0,1,0-2.47,2.45,2.48,2.48,0,0,0,2.47-2.45" transform="translate(-246 -232.77)" style="fill:#fff"/><path d="M326.83,341.81H311.3c0,1,0,1.93,0,2.63,0,3.39.13,5.48.26,6.73h15.27" transform="translate(-246 -232.77)" style="fill:#fff"/><path d="M305.66,303.46a2.47,2.47,0,1,0,2.47-2.47,2.45,2.45,0,0,0-2.47,2.47" transform="translate(-246 -232.77)" style="fill:#fff"/><path d="M315.44,308.57A2.46,2.46,0,1,0,313,306.1a2.47,2.47,0,0,0,2.48,2.47" transform="translate(-246 -232.77)" style="fill:#fff"/><path d="M312.91,301.75a5,5,0,0,1,2.52-.68l1.36.18a5,5,0,0,1,1.07-3,5,5,0,0,1-1.67-2.72l-1.79-.43a5,5,0,0,1-3.35,4.23,5.21,5.21,0,0,1,1.85,2.42" transform="translate(-246 -232.77)" style="fill:#fff"/><path d="M321.11,296.83a2.45,2.45,0,1,0-2.48-2.45,2.46,2.46,0,0,0,2.48,2.45" transform="translate(-246 -232.77)" style="fill:#fff"/><path d="M360.16,296.39l-1.77.41a5,5,0,0,1-1.67,2.72,5,5,0,0,1,1.07,3l1.34-.18a5.06,5.06,0,0,1,2.54.68,5.18,5.18,0,0,1,1.86-2.42,5,5,0,0,1-3.37-4.23" transform="translate(-246 -232.77)" style="fill:#fff"/><path d="M348.05,351.17h16.73l.06-6.61c0-.72,0-1.67,0-2.75H348.28" transform="translate(-246 -232.77)" style="fill:#fff"/><path d="M337.3,311.88c-6.3,0-8,11.72-8.14,16.72l-.1,3.78a54.88,54.88,0,0,1,.74,8h15.56a40.85,40.85,0,0,1,.33-4.44c-.35-7.23-2-24-8.38-24" transform="translate(-246 -232.77)" style="fill:#fff"/><polyline points="83.79 109.04 83.79 118.4 99.08 118.4 99.31 109.04" style="fill:#fff"/><path d="M336.29,265.11c-11.35,12.42-34.12,14-50.64,14.57,0,0,12.23,28.39,12.23,51a82.76,82.76,0,0,1-2.67,20.45h13.41c-.13-1.4-.24-3.56-.24-6.73,0-7.35-.38-25.27,10.45-25.27l1.18.08-.86-1.85-7.54-1.3.2-2.78,7.08-.52-.58-2.54a5.1,5.1,0,0,1-7.64-2.45,5,5,0,1,1-4.2-9.12,5,5,0,0,1,2.91-9.15l2,.43a5.07,5.07,0,0,1,10-.62,5,5,0,0,1,4.78,5,5,5,0,0,1-1.07,3.09,5,5,0,0,1-2,8.75l3.41,4.31,2.08-5,2.73.4-.8,7.75c1.56-2.15,3.73-4.75,6.77-4.75s5.13,2.92,6.73,5.76l-.77-7.46,2.73-.38,2.09,5,3.4-4.32a5,5,0,0,1-2-8.74,5,5,0,0,1-1.08-3.1,5,5,0,0,1,4.8-5,5.06,5.06,0,0,1,10,.62l2-.44a5,5,0,0,1,2.91,9.16,5,5,0,0,1-1.67,9.79,5.08,5.08,0,0,1-2.54-.68,5.09,5.09,0,0,1-7.63,2.45l-.58,2.54,7.08.52.2,2.78-7.54,1.29-.8,1.71a9.26,9.26,0,0,1,2.94-.46c10.49,0,10.2,17.49,10.2,24.63l0,6.61h8.22v-70c-14.82-1.31-28.12-5.85-39.64-16" transform="translate(-246 -232.77)" style="fill:#fff"/><path d="M364.8,340.35c-.14-6.88-1.1-17.47-7.22-17.47-7.39,0-9.17,11.71-9.29,17.47" transform="translate(-246 -232.77)" style="fill:#fff"/><path d="M356.67,307.41a2.47,2.47,0,1,0,2.47-2.45,2.46,2.46,0,0,0-2.47,2.45" transform="translate(-246 -232.77)" style="fill:#fff"/><path d="M358.1,289.32a2.47,2.47,0,0,0-2.39,1.83,5.06,5.06,0,0,1,2.6,3.08,2.46,2.46,0,0,0-.22-4.91" transform="translate(-246 -232.77)" style="fill:#fff"/><path d="M350.24,302.62a2.47,2.47,0,1,0,2.48-2.45,2.46,2.46,0,0,0-2.48,2.45" transform="translate(-246 -232.77)" style="fill:#fff"/><path d="M353.46,293.21a2.46,2.46,0,0,0-2.48,2.45l1,2,.72-.05,1.77.32a2.49,2.49,0,0,0,1.46-2.25,2.45,2.45,0,0,0-2.47-2.45" transform="translate(-246 -232.77)" style="fill:#fff"/><path d="M475.08,351.69a82.74,82.74,0,0,1-2.8-21c0-22.65,12.23-51,12.23-51a169.58,169.58,0,0,1-24.16-2.24V351.7" transform="translate(-246 -232.77)" style="fill:#0fa653"/><path d="M502.21,432.86c0-11.46-3.1-22.07-7.31-32.51H468.52V476c19.62-8.15,33.69-20.52,33.69-43.11" transform="translate(-246 -232.77)" style="fill:#0fa653"/><path d="M477.76,360.49H292.37c-3.75,10.76-8.81,20.9-13.38,31.07H491.14c-4.56-10.16-9.64-20.31-13.38-31.07" transform="translate(-246 -232.77)" style="fill:#0fa653"/><path d="M275.22,400.38c-4.2,10.43-7.29,21-7.29,32.48,0,21.05,12.24,33.23,29.79,41.39V400.38" transform="translate(-246 -232.77)" style="fill:#0fa653"/><path d="M441.34,351.69V271a30.83,30.83,0,0,1-7.48-5.9,63.37,63.37,0,0,1-7.1,5.43V351.7" transform="translate(-246 -232.77)" style="fill:#0fa653"/><path d="M408.46,351.69v-73a82.14,82.14,0,0,1-14.57,2.48v70.51" transform="translate(-246 -232.77)" style="fill:#0fa653"/><path d="M334.78,400.35v85.58c9.88,2.32,20,4.41,29.67,6.76l1.74-7.42a43.51,43.51,0,1,1,31.86,1.28l2.26,7.5c10-2.57,20.52-4.8,30.95-7.16V400.35" transform="translate(-246 -232.77)" style="fill:#0fa653"/><path d="M456.91,379.82c-1.73,0-3.19-3.78-3.19-6.92,0-2.33.94-3.07,3.19-3.07s3.19.74,3.19,3.07c0,3.15-1.46,6.92-3.19,6.92m0,4.11c5.4,0,8-6.63,8-11.25,0-3.76-1.82-6.92-8-6.92s-8,3.16-8,6.92c0,4.62,2.57,11.25,8,11.25m-14-17.79h-4.58v17.4h9.52l1.07-3.93h-6Zm-14.64,13.68c-1.73,0-3.19-3.78-3.19-6.92,0-2.33,1-3.07,3.19-3.07s3.2.74,3.2,3.07c0,3.15-1.46,6.92-3.2,6.92m0,4.11c5.4,0,8-6.63,8-11.25,0-3.76-1.82-6.92-8-6.92s-8,3.16-8,6.92c0,4.62,2.57,11.25,8,11.25m-9.91-17.79h-4.58v13.48H412c-.9,0-3.38,0-3.38-3.3,0-3.66,2.29-7.94,3.29-10.18h-5c-1.62,3.22-3,6.61-3,10.25,0,4,1.82,7.15,6.94,7.15h7.43V366.14Zm-16.72,0h-4.92c-3.84,0-4.72,2.48-4.72,4,0,1.73,1.08,2.95,2.15,4.17l3.1,3.5.75,1.21-1.68.58h-4.16l1.07,3.93h5.34c3.82,0,4.71-2.47,4.71-4,0-1.73-1.07-3-2.16-4.16l-3.19-3.51-.75-1.21,1.68-.58h3.87Zm-12,0h-4.92c-3.84,0-4.71,2.48-4.71,4,0,1.73,1.07,2.95,2.15,4.17l3.1,3.5L386,379l-1.7.58h-4.15l1.06,3.93h5.34c3.84,0,4.71-2.47,4.71-4,0-1.73-1.08-3-2.17-4.16l-3.19-3.51-.74-1.21,1.68-.58h3.87ZM378,371.32h-4.58v2.79h-4.56c.59-1.49,1.42-4,6.32-4h3.6l-1.07-3.93H375.4c-3.3,0-6.14.41-8.59,2.85a11.8,11.8,0,0,0-3.15,8.35,15.91,15.91,0,0,0,2.72,8.65l3.72-2.45a11.16,11.16,0,0,1-1.76-5.52h5v5.52h4.58V371.32Zm-16.6-5.17h-4.92c-3.84,0-4.71,2.48-4.71,4,0,1.73,1.06,2.95,2.14,4.17l3.1,3.5.75,1.21-1.7.58h-4.15l1.06,3.93h5.34c3.84,0,4.71-2.47,4.71-4,0-1.73-1.07-3-2.17-4.16l-3.19-3.51-.74-1.21,1.68-.58h3.85Zm-22.82,13.48h3.85v3.92h-3.85Zm-3.08-13.48h-4.92c-3.84,0-4.71,2.48-4.71,4,0,1.73,1.06,2.95,2.14,4.17l3.1,3.5.74,1.21-1.68.58H326l1.08,3.93h5.33c3.84,0,4.71-2.47,4.71-4,0-1.73-1.07-3-2.16-4.16l-3.19-3.51-.75-1.21,1.7-.58h3.85Zm-15.32,13.48H324v3.92h-3.85v-3.92Zm-2.63-13.48h-4.59v13.48H311.2c-.89,0-3.38,0-3.38-3.3,0-3.66,2.29-7.94,3.3-10.18h-4.94c-1.64,3.22-3,6.61-3,10.25,0,4,1.81,7.15,6.94,7.15h7.43V366.14Z" transform="translate(-246 -232.77)" style="fill:#fff"/></svg>