<svg id="Layer_1" data-name="Layer 1" xmlns="http://www.w3.org/2000/svg" viewBox="0 0 285.79 343.52"><title>Torino FC logo - Brandlogos.net</title><g id="g3835"><g id="layer1"><path id="path5762" d="M252.84,84.25c-8.55.3-18.69,1.31-34.87,2.86-35.83,3.45-45.81,4.17-65.18,1.75-12.35-1.54-29.06-4.57-31.29-4.54.07,2.25-3.56,22.24-3.58,22.36-1.09,5.48-2.06,13.39-3.37,27.74-4.32,47.26,1.05,96.82,14.94,138.26,13.78,41.1,35.19,77.88,62.51,107.52,12.24,13.28,30.22,27.18,43.71,37.38,1.08.74,16.31,9.89,20.28,10.2,4-.31,19.2-9.46,20.28-10.2,13.49-10.19,31.47-24.1,43.71-37.38,27.32-29.64,48.73-66.42,62.51-107.52,13.89-41.44,19.26-91,14.94-138.26-1.31-14.35-2.27-22.26-3.37-27.74,0-.11-3.65-20.11-3.58-22.36-2.23,0-18.94,3-31.29,4.54-19.37,2.42-29.35,1.71-65.18-1.75-16.7-1.61-27-2.6-35.71-2.86-.78,0-1.55,0-2.32,0s-1.53,0-2.32,0h-.84Z" transform="translate(-113.11 -84.24)" style="fill:#ecb215"/></g><path id="path5755" d="M250.09,91.46c-40.93,3.42-83.37,10.18-123.67,1.21-5.24,35.06-9.38,70.86-5.14,106.53,7.21,80.68,45.59,161.46,112.77,209.3,4.16,3,18.83,12.06,21.73,12.06,3.07,0,17.54-8.8,21.17-11.33,82.75-57.76,120.44-162.76,115-261.35-1.15-18.5-2.48-38-7.28-55.36C348,101,309.93,96.14,272.81,92.22A218.3,218.3,0,0,0,250.09,91.46Z" transform="translate(-113.11 -84.24)" style="fill:#881f19"/><g id="g13797"><path id="rect8439" d="M298.23,192v40.54h11.59V217.11H321v-9.24H309.63v-6.4h20.63V192h-32Z" transform="translate(-113.11 -84.24)" style="fill:#f8fbfd;stroke:#e9aa0f;stroke-width:1.081553339958191px"/><path id="path11112" d="M352.76,192.41c-9.18.9-16.42,9.53-16.42,20,0,11,8,20.05,18,20.05,6.47,0,12.19-3.83,15.38-9.55l-9.06-2.28a9.19,9.19,0,0,1-1,.81c-13.88,7.19-16.91-17.77-6.07-19.24.1,0,.21-.06.3-.07h.15c2.79-.12,4.89.38,6.51,2.12l9.06-2.5a17.76,17.76,0,0,0-15.3-9.33c-.47,0-.88,0-1.34,0h-.22Z" transform="translate(-113.11 -84.24)" style="fill:#f8fbfd;stroke:#e9aa0f;stroke-width:1.0550875663757324px"/></g><g id="g3831"><path id="path5774" d="M252.1,99.87c-1.12,0-2.24,0-3.36,0L247,100c-37.6,3.06-76.44,8.15-113.59,2.52a360.83,360.83,0,0,0-4.84,69.78H383.5a324.84,324.84,0,0,0-6.08-70.34c-24.2,6.09-50.29,2.49-75.07,1C285.62,101.52,268.9,99.76,252.1,99.87Z" transform="translate(-113.11 -84.24)" style="fill:#fffbff"/><rect id="rect3050" x="15.4" y="88.05" width="254.99" height="4.43" style="fill:#518ac3;opacity:0.9599999785423279;isolation:isolate"/></g><g id="g3042"><path id="rect6660" d="M144.14,114.87v12.36h11.23v35.21h10.87V127.23h11.59V114.87Z" transform="translate(-113.11 -84.24)" style="fill:#881f19;stroke:#e9aa0f;stroke-width:4.106557846069336px"/><rect id="rect7540" x="154.45" y="30.42" width="10.94" height="47.86" style="fill:#881f19;stroke:#e9aa0f;stroke-width:3.858717918395996px"/><path id="rect7543" d="M285.58,114.5v47.88h10.8V140.89l16.14,21.28.28.35h10.66v-48H312.24v23.9l-17.68-23.83v-.07h-9Z" transform="translate(-113.11 -84.24)" style="fill:#881f19;stroke:#e9aa0f;stroke-width:3.858717918395996px"/><path id="rect7547" d="M225,114.33v48.19h10.87V144.63h7.1l6.74,17.89h12.77l-8-20.62c5.26-1.59,6.45-7.12,6.45-13.61,0-7.35-5-13.37-11.3-14H225Zm10.84,10.46h11.61a4.3,4.3,0,0,1,4.42,4.65c0,3-1.95,4.79-4.42,4.86H235.81v-9.51Z" transform="translate(-113.11 -84.24)" style="fill:#881f19;stroke:#e9aa0f;stroke-width:3.858717918395996px"/><path id="path9329" d="M199.26,114.15c-10.44.79-18.8,11.29-18.8,24.11,0,13.33,9,24.18,20.07,24.18s19.92-10.85,19.92-24.18-8.89-24.11-19.92-24.11H200C199.78,114.16,199.51,114.13,199.26,114.15Zm.49,12.52h.07c11.29-.49,12.4,22,1.68,24.49-11.95,1.14-13.6-22.62-1.75-24.49Z" transform="translate(-113.11 -84.24)" style="fill:#881f19;stroke:#e9aa0f;stroke-width:4.119616985321045px"/><path id="path2385" d="M346.66,114.15c-10.44.79-18.8,11.29-18.8,24.11,0,13.33,9,24.18,20.07,24.18s19.92-10.85,19.92-24.18-8.89-24.11-19.92-24.11h-.49C347.18,114.16,346.91,114.13,346.66,114.15Zm.49,12.52h.07c11.29-.49,12.4,22,1.68,24.49-11.95,1.14-13.6-22.62-1.75-24.49Z" transform="translate(-113.11 -84.24)" style="fill:#881f19;stroke:#e9aa0f;stroke-width:4.119616985321045px"/></g><g id="g12989"><path id="path9346" d="M158.33,191.18a7.82,7.82,0,0,0-3.12.69,6.75,6.75,0,0,0-2.39,1.63,5.33,5.33,0,0,0-1.66,4.45,4.49,4.49,0,0,0,1.29,3.08c1.06,1.08,2.17,1.6,4.42,1.82a8.23,8.23,0,0,0,3.84-.46l.71-.36c.27-.13.35-.22.37-.21s-.09.57-.14.71a7.38,7.38,0,0,1-1.51,2,9,9,0,0,1-3.79,2.37l-2.28.73s0,0,0,0l.29,2.38a14.38,14.38,0,0,0,1.55-.2c4.19-.77,7.75-3.83,8.73-7.51.82-4.1,1.15-8.84-3.43-10.61a8.39,8.39,0,0,0-2.86-.55Zm0,3a4.77,4.77,0,0,1,2.79.82,2.8,2.8,0,0,1,.23,4.17c-2.44,2.17-7.27.93-7.27-1.87C154.09,195.5,156.2,194.24,158.36,194.22Z" transform="translate(-113.11 -84.24)" style="fill:#fff"/><path id="path9342" d="M175.05,191.41a6.59,6.59,0,0,0-6,3.46c-1,2-1.43,7.42-.7,9.65a8.15,8.15,0,0,0,4,5c3.07,1.4,6.72,0,8.62-3.24,1.3-2.22,1.36-9,.09-11.38a6.8,6.8,0,0,0-6.08-3.46Zm0,3a3.64,3.64,0,0,1,2.94,1.3c1.88,2.54,1.69,8.33-.33,10.38a3.41,3.41,0,0,1-5.14-.1c-2.11-2.13-2.33-7.68-.41-10.27A3.64,3.64,0,0,1,175.08,194.44Z" transform="translate(-113.11 -84.24)" style="fill:#fff"/><rect id="rect8447" x="31.91" y="107.09" width="2.88" height="18.32" style="fill:#fff"/><path id="path12940" d="M191.73,210.28a7.82,7.82,0,0,0,3.12-.69,6.75,6.75,0,0,0,2.39-1.63,5.33,5.33,0,0,0,1.66-4.45,4.49,4.49,0,0,0-1.29-3.08c-1.06-1.08-2.17-1.6-4.42-1.82a8.23,8.23,0,0,0-3.84.46l-.71.36c-.27.13-.35.22-.37.21s.09-.57.14-.71a7.38,7.38,0,0,1,1.51-2,9,9,0,0,1,3.79-2.37l2.28-.73s0,0,0,0l-.29-2.38a14.38,14.38,0,0,0-1.55.2c-4.19.77-7.75,3.83-8.73,7.51-.82,4.1-1.15,8.84,3.43,10.61a8.39,8.39,0,0,0,2.86.55Zm0-3a4.77,4.77,0,0,1-2.79-.82,2.8,2.8,0,0,1-.23-4.17c2.44-2.17,7.27-.93,7.27,1.87C196,206,193.86,207.22,191.7,207.24Z" transform="translate(-113.11 -84.24)" style="fill:#fff"/></g><path id="path2987" d="M269.69,383.37l-1.26-1.13,4.3-6.67c2.37-3.67,4.72-7.59,5.24-8.72a19.8,19.8,0,0,1,3.43-4.53c2.84-2.82,5.69-8.25,6.07-11.53.31-2.72-.59-4.25-7.46-12.71-8.49-10.45-11.49-15.39-12.62-20.79-1-5,1-11.93,4.93-17.19l2.4-3.18L272,299.51c-5.32,5.15-7.35,11.48-5.82,18.15,1.35,5.92,1.35,5.94-1.46,6.09-4.07.22-6.88-2.23-7.49-6.52-.27-1.88-.32-1.66-.37,1.54-.11,6.67-2.14,7.47-18.92,7.47h-9.89l-1.48,1.23a3.49,3.49,0,0,0-1.49,2.5c0,2.09-.54,2.44-3.48,2.36-3.3-.09-4.46.75-5,3.6-.69,3.46-5.46,6-11.21,6-2.29,0-5.15-1.1-5.55-2.14s4.13-6.89,8.94-11.77l6.73-6.86c4.64-4.75,5.26-4.95,15.76-5h8.8l-.38-2.26c-.65-3.92-.32-15.46.54-18.77,1.36-5.27,2.84-6,9.94-5,2.46.36,4.52.62,4.58.56.38-.38-3.18-6.15-6.45-10.45-4.06-5.34-6.12-9-6.67-11.74-.28-1.43-.22-1.59.53-1.3,2.08.79,9.4,1.74,13.44,1.74,5.44,0,8.71-.9,10.61-2.91l1.42-1.5L265.52,266c-2.06,1.33-2.31,1.37-7.93,1.32-7-.06-8.88-.58-24.16-6.82-11.89-4.85-21.28-8.13-23.33-8.14a5.36,5.36,0,0,0-4.24,2,3.07,3.07,0,0,1-2.4,1l-1.61,0,0,3.1c0,4.3-.38,5-3,6.22-5.08,2.4-10.32,3.11-11.84,1.61-1.06-1.06-1.12-.91,2.75-6.92,1.93-3,4-6.46,4.6-7.7a13.26,13.26,0,0,1,7.63-6.55,50.28,50.28,0,0,1,7.34-.83c6.12-.3,9.77.35,20.77,3.72a61.77,61.77,0,0,0,7.93,2.13c.37-.37-4.14-2.14-8.55-3.37l-6.24-1.75-2.16-.62,3.75-.14A103.15,103.15,0,0,1,241.47,246c1.15.28,1.17.25.4-.62-1.38-1.56-1.48-3.16-.39-6.05.56-1.49,1.22-2.71,1.45-2.71,1.23,0,3.87-3.12,4.54-5.37,1.13-3.78.86-4.1-.76-.89-2,4-3.7,5.17-8.61,6-4.59.8-6.23,1.68-6.23,3.31,0,2.27-4.66,2.75-7.12.73-1.48-1.21-1.18-2.54.64-2.85,1.65-.28,2.08-1.44,1-2.56-1.53-1.52-3.93,1-3.41,3.57.22,1.09.11,1.37-.55,1.36-3.38,0-3.78-5.84-1.21-17.84.94-4.38,1.09-5.89.68-6.55-.88-1.4-.62-4.18.77-8.06l1.31-3.66-1.73-1.9a13.51,13.51,0,0,1-2.38-3.75c-.88-2.51-.74-7.88.29-11.51.94-3.31,1.68-4.24,1.68-2.13a13.72,13.72,0,0,0,3.7,8.75,13,13,0,0,0,2.56,2.32c.2,0,.52-1.23.7-2.74a36.54,36.54,0,0,1,1.15-5.36l.82-2.62.62,3.09c.78,3.86,1.86,6,4.21,8.18,3,2.85,4.42,3.29,13.56,4.29,15.4,1.67,21.89,3.95,27.68,9.69,6,5.94,7.37,10,8.86,25.75,1.21,12.86,3.21,28.88,4.15,33.36,2.78,13.14,19.49,30.1,25.42,25.79,2.18-1.58.59-6.12-4.89-14C307,276.22,302,267.65,302,266.69c0-1.66,12,14.26,17.08,22.64,4.79,7.91,5.85,11.77,4.36,15.84-1.35,3.7-6.47,6.73-10.34,6.11l-1.77-.28-.56,4.65c-1,8.37-2.44,10.71-11.54,18.84-3,2.72-2.67,4.27,2,8.59l2.35,2.17-.29,2.46a8.39,8.39,0,0,1-4.07,6.36c-3.06,1.59-5.84,6.16-6.83,11.24-.77,4-1.21,4.66-3.58,5.76a7.71,7.71,0,0,0-2.23,1.32c0,.17-.11,1.9-.19,3.85-.15,4.11-.11,4.06-5.47,6.28-5,2.09-9.44,2.42-11.21.84Zm27.81-40.94c-2.27-2.51-3.46-5.12-3.05-6.69.34-1.3-.23-1.15-1.81.49l-1.36,1.41,1.15,1.73c.89,1.33,6.17,5.39,7.08,5.45A19.88,19.88,0,0,0,297.5,342.43Zm7.13-16.32c2.06-2.39,3.52-6.78,3.91-11.76l.28-3.6-1.55,1.49c-1.47,1.42-1.56,1.69-1.63,5.24-.1,4.52-1.15,7.12-4.48,11l-2.3,2.71,2-1.57A31,31,0,0,0,304.64,326.11Zm-4-31.56c-2.91-3.13-5.87-7.89-9.4-15.09-3.39-6.92-4.46-11-5.63-21.37-.32-2.89-.79-5.25-1-5.25-.73,0,0,16.5.82,19.5,2.18,7.65,9,18.3,14.47,22.49,3.09,2.38,3.2,2.33.77-.28Zm-72.9-76.17c2.54-.39,3.2-1.07,3.2-3.32v-1.92l-1.08,1.62a8.79,8.79,0,0,1-3.11,2.55,5.8,5.8,0,0,0-2.27,1.56c-.18.45,0,.51.59.2A11.59,11.59,0,0,1,227.7,218.38Zm16.87-8c6.48-.67,8.51-1.91,7-4.27-.37-.57-.62-.47-1.47.59-1,1.25-3.64,2.26-7.72,2.93a6.82,6.82,0,0,0-2.64,1c-.51.41-.68.62-.37.47A39.36,39.36,0,0,1,244.57,210.42Zm-8.39-5.48c0-.51-.52-.72-1.8-.72a22.38,22.38,0,0,1-8.22-2.1c-.89-.46-1.47-.59-1.29-.31.37.6,3.49,2.24,6,3.15S236.18,205.85,236.18,204.94Zm-23.75,74.47c-.72-2.69-2-6.81-2.77-9.16-2.19-6.4-1.43-11.62,2.17-15l1.21-1.12,2.56.83a35.84,35.84,0,0,1,3.9,1.5l1.34.67-1,1.27a4.33,4.33,0,0,0-.88,3.36c.1,1.56-.08,2.2-.69,2.54-1.3.72-1,2.66.5,3.46a10.58,10.58,0,0,1,2.66,2.39c1.25,1.58,1.3,1.84.8,3.68-1.57,5.78-4.78,10.42-7.21,10.42-1.22,0-1.34-.24-2.58-4.89Zm107.91-2.71a17.38,17.38,0,0,0-4.27-5.09c-5.19-4.52-6.37-8.65-3.31-11.59,2-1.89,2.89-3.89,2.5-5.43-.64-2.55-5-5.55-9.86-6.78-3.64-.93-5.71-.64-7.78,1.09l-1.51,1.26,1-1.92c2.45-4.77,8.21-5.51,17.59-2.27,10.72,3.71,13.36,9.88,8.81,20.56-1.4,3.29-1.58,4.2-1.58,8.11a20.22,20.22,0,0,1-.24,4.39,9.57,9.57,0,0,1-1.33-2.34Zm-.28-8c.31-1,1.12-3,1.8-4.62,2.81-6.53,1.15-11.5-4.85-14.48-2.8-1.39-2.95-1.26-.59.54,4,3.08,4.91,7.54,2.54,13-1.7,3.91-1.94,5.77-.87,6.94s1.22,1,2-1.37Z" transform="translate(-113.11 -84.24)" style="fill:#fff"/></g></svg>