<svg xmlns="http://www.w3.org/2000/svg" width="191.13" height="195.28" viewBox="0 0 191.13 195.28"><title>Hellas Verona FC logo - Brandlogos.net</title><path d="M384,440.86h14.39l.93,18.28L384,481.64l-15.32-22.5.93-18.28Zm12.53-36.1H371.43l.41-7.27h24.33Zm-24.35-14.46L373,375l11,15,11-15,.79,15.27Zm25.1,28.93H370.7l.37-7.29h25.82Zm.76,14.45H369.95l.37-7.28h27.31ZM299.36,366.4a72.2,72.2,0,0,1,1.28,11.9c.16,1.11.22,7.4,3.9,10.82l-16.11,0v-31S297.12,357.59,299.36,366.4Zm-2-71.28h-5.77v5.71h-3.13V286.6h3.13v5.63h5.77V286.6h3.13v14.23h-3.13Zm21.89,51.23c4.9,0,5.31-.21,5.31-.21a.55.55,0,0,0,.31-.48.74.74,0,0,0-.33-.56l-11-6.84s-9.16,6.2-10.18,6.84a2.55,2.55,0,0,0-1.17,1.25Zm-13.94-12.46s21.49-9.37,22.3-9.75a2,2,0,0,0,1-1.24l3-6.69L366,365.36l-4.76,82.92-40.21-58.91c-.35-.35-1.15-.24-1.15-.24h-4s-2.34-.16-3.36-.21c-6.35-.29-7.08-9.14-7.08-9.14-.26-2.39-.73-7.36-1.56-14-1.08-8.7-10.46-12-14.54-12h-1v-7.36h13.68v-8.1c0-3.13,3.18-4.36,3.18-4.36Zm-2.94-47.29h10.73v2.78h-7.62v2.89h6.7v2.79h-6.7v3h7.72v2.78H302.35Zm12.09,0h3.13V298h7.09v2.85H314.44Zm28.38,3.66-1.89,4.61h3.78Zm4.31,10.57-1.3-3.19h-6l-1.3,3.19h-13V286.6h3.13V298h7.09v1.94l5.71-13.42h2.89l6.1,14.33Zm8.8.2a8.76,8.76,0,0,1-6-2.28l1.85-2.21a6.52,6.52,0,0,0,4.25,1.73c1.28,0,2.05-.51,2.05-1.34v0c0-.79-.49-1.2-2.86-1.81-2.86-.73-4.71-1.52-4.71-4.35v0c0-2.58,2.07-4.29,5-4.29a8.24,8.24,0,0,1,5.28,1.81l-1.62,2.36a6.68,6.68,0,0,0-3.7-1.4c-1.2,0-1.83.55-1.83,1.24v0c0,.93.61,1.24,3.07,1.87,2.89.75,4.51,1.79,4.51,4.27v0c0,2.83-2.15,4.41-5.22,4.41Zm15.52-.1L365.7,286.6h3.45l3.72,10,3.72-10H380l-5.75,14.33Zm9.18-14.33h10.73v2.78h-7.62v2.89h6.7v2.79h-6.7v3h7.72v2.78H380.64Zm20.79,4.86c0-1.34-.93-2-2.46-2h-3.11v4.09H399c1.52,0,2.4-.81,2.4-2Zm-.06,9.37-3-4.55h-2.46v4.55h-3.13V286.6h6.5a5.66,5.66,0,0,1,4.14,1.44,4.47,4.47,0,0,1,1.22,3.25v0a4.42,4.42,0,0,1-3,4.41l3.48,5.08Zm15.75-7.11a4.32,4.32,0,0,0-4.31-4.47,4.25,4.25,0,0,0-4.27,4.43v0a4.32,4.32,0,0,0,4.31,4.47,4.26,4.26,0,0,0,4.27-4.43Zm-4.31,7.36a7.29,7.29,0,0,1-7.54-7.32v0a7.56,7.56,0,0,1,15.12,0v0a7.36,7.36,0,0,1-7.58,7.36Zm11.92-9.29v9h-3.09V286.6h2.89l6.66,8.76V286.6h3.09v14.23h-2.66Zm17.72-1.52-1.89,4.61h3.78Zm3,7.38h-6l-1.3,3.19h-3.19L441,286.5h2.89l6.1,14.33h-3.27l-1.3-3.19Zm12.94-5.16h6.79v2.85h-6.79v5.51h-3.13V286.6h10.83v2.84h-7.7Zm15.44,5.71a5.13,5.13,0,0,0,3.74-1.67l2,2a7.27,7.27,0,0,1-5.83,2.54,7.18,7.18,0,0,1-7.3-7.32v0a7.23,7.23,0,0,1,7.42-7.36,7.34,7.34,0,0,1,5.61,2.2l-2,2.3a5.25,5.25,0,0,0-3.64-1.61,4.21,4.21,0,0,0-4.13,4.43v0A4.23,4.23,0,0,0,473.83,298.19ZM464.7,345.1c-1-.65-10.18-6.84-10.18-6.84l-11,6.84a.74.74,0,0,0-.33.56.55.55,0,0,0,.31.48s.41.21,5.31.21h17.1a2.56,2.56,0,0,0-1.17-1.25Zm-.63,20.65c-.83,6.68-1.3,11.65-1.56,14,0,0-.73,8.85-7.08,9.14-1,0-3.36.21-3.36.21h-4s-.8-.11-1.15.24l-40.21,58.91L402,365.36l34.41-49.14,3,6.69a2,2,0,0,0,1,1.24c.81.38,22.3,9.75,22.3,9.75s3.18,1.24,3.18,4.36v8.1h13.68v7.36h-1C474.53,353.71,465.15,357,464.07,365.75Zm-.61,23.37c3.68-3.42,3.74-9.71,3.9-10.82a72.2,72.2,0,0,1,1.28-11.9c2.24-8.81,10.92-8.27,10.92-8.27v31Z" transform="translate(-288.44 -286.36)" style="fill:#ffd100"/></svg>